<?xml version="1.0" encoding="UTF-8" standalone="no"?><!DOCTYPE svg PUBLIC "-//W3C//DTD SVG 1.1//EN" "http://www.w3.org/Graphics/SVG/1.1/DTD/svg11.dtd"><svg width="100%" height="100%" viewBox="0 0 2084 2084" version="1.1" xmlns="http://www.w3.org/2000/svg" xmlns:xlink="http://www.w3.org/1999/xlink" xml:space="preserve" xmlns:serif="http://www.serif.com/" style="fill-rule:evenodd;clip-rule:evenodd;stroke-linejoin:round;stroke-miterlimit:2;"><path d="M169.065,902.432c27.166,-141.034 85.524,-266.097 171.759,-378.157c121.025,-157.268 278.059,-262.814 467.745,-319.233c110.075,-32.741 222.82,-41.398 337.292,-30.684c215.397,20.16 400.193,107.193 553.418,258.279c136.383,134.481 223.449,296.961 255.342,486.936c36.779,219.082 3.51,426.759 -110.854,618.202c-135.589,226.975 -333.394,372.504 -592.133,428.068c-250.259,53.743 -485.919,9.518 -698.006,-134.16c-211.128,-143.027 -341.326,-342.514 -387.212,-594.773c-20.178,-110.928 -17.951,-221.977 2.649,-334.478m618.498,468.479c0,0 0.536,0.41 -1.701,1.065c-0.618,1.363 -1.237,2.725 -2.618,6.196c-1.295,1.744 -2.59,3.487 -6.452,5.953c-1.966,-2.259 -4.453,-4.245 -5.804,-6.826c-4.634,-8.851 -8.87,-17.911 -12.797,-27.23c0,-0 -0.324,0.471 -0.651,-1.716c-1.163,-0.827 -2.327,-1.655 -5.838,-3.793c-6.014,-5.395 -12.027,-10.79 -18.879,-19.169c-9.411,-2.695 -19.421,-8.785 -28.088,-7.257c-11.812,2.082 -22.6,9.974 -34.974,17.627c-3.656,3.442 -7.313,6.883 -14.061,10.491c-16.257,18.487 -18.213,37.966 -5.691,57.933c0,-0 -0.109,0.091 -0.305,2.615c1.528,1.88 3.055,3.761 4.454,5.684c-0,-0 0.108,-0.093 -0.201,3.129c1.456,7.307 2.912,14.614 2.633,24.094c-27.771,17.469 -42.202,43.254 -43.994,75.362c-1.422,25.473 -0.299,51.089 -0.303,76.642c-0.003,21.788 -0,43.577 -0,65.829c42.522,0 81.788,0 122.242,2.152c1.371,0.837 2.742,1.673 3.665,6.165l-0,21.28c63.733,-0 125.046,-0 188.353,0.521c-0,-0 2.046,0.24 0.647,3.275c-3.002,13.358 -6.005,26.716 -9.234,41.085l288.46,0c-0,-15.116 -0,-28.83 2.154,-43.104c1.376,-0.575 2.753,-1.151 7.995,-1.374l174.001,0c0,-13.391 0,-23.678 2.794,-34c0.84,-0.402 1.68,-0.804 6.159,0.271l116.83,0c-0,-54.472 2.303,-107.124 -0.979,-159.426c-1.623,-25.857 -19.002,-47.356 -42.788,-60.652c-4.17,-2.331 -10.579,-0.655 -18.046,-4.11c-1.297,-0.018 -2.593,-0.036 -0.285,-0.61c2.281,-1.568 4.717,-2.952 6.818,-4.731c24.676,-20.892 30.354,-48.881 15.454,-75.804c-13.153,-23.765 -42.194,-35.11 -69.999,-27.346c-27.16,7.585 -44.764,33.367 -39.544,64.512c2.538,15.14 12.871,28.973 19.52,43.069c1.054,-0.308 -1.872,-0.063 -4.101,1.312c-6.46,3.987 -12.64,8.428 -21.32,10.692c-1.957,-6.7 -3.914,-13.401 -5.908,-23.121c0.159,-3.016 0.318,-6.031 2.151,-11.432c-2.528,-7.558 -5.056,-15.116 -7.32,-22.799c0,0 -0.238,0.179 0.001,-2.431c-1.719,-1.678 -3.437,-3.356 -4.171,-5.89c-0,-0 -1.005,0.827 -1.374,-1.381c-1.208,-0.757 -2.415,-1.513 -5.292,-3.163c-1.032,-0.784 -1.795,-1.776 -2.411,-6.042c-4.015,-1.98 -8.03,-3.96 -13.801,-6.43c0,0 -1.702,-0.653 -2.699,-3.618c-10.978,-0.24 -21.956,-0.48 -35.955,-0.296c-47.845,8.465 -62.74,72.018 -29.311,106.655c-0.17,0.813 -0.339,1.625 -3.346,2.379c-13.152,14.929 -26.304,29.858 -41.917,45.11c-1.635,-0.225 -3.27,-0.451 -4.924,-4.039c-4.292,-16.655 -8.584,-33.309 -11.281,-50.457c0.436,-1.427 0.873,-2.854 2.223,-7.081c7.34,-48.538 15.757,-96.949 21.511,-145.675c2.415,-20.457 -3.495,-41.854 -24.734,-50.587c-21.32,-8.768 -34.361,7.471 -46.295,22.391c-0.354,0.442 -1.294,0.415 -1.603,0.503c-4.603,-5.204 -9.099,-10.287 -13.691,-19.19c0.655,-8.992 1.881,-17.984 1.875,-26.976c-0.05,-75.89 28.526,-137.623 85.641,-188.559c49.111,-43.797 97.665,-89.039 140.779,-138.589c128.847,-148.083 86.301,-371.256 -87.156,-463.439c-106.099,-56.385 -218.466,-62.402 -333.322,-32.913c-154.535,39.677 -238.077,171.629 -250.129,325.961c51.137,6.061 102.353,12.132 154.473,18.31c4.137,-19.321 7.331,-36.223 11.396,-52.913c32.066,-131.671 126.276,-197.147 254.379,-174.012c77.762,14.043 132.225,60.267 158.103,134.871c25.37,73.139 3.996,136.467 -51.28,188.976c-41.257,39.192 -83.053,77.818 -124.491,116.821c-83.801,78.875 -113.804,177.914 -108.081,290.111c0.25,4.907 3.797,9.646 3.871,17.008c-27.043,48.332 -15.369,89.647 24.949,126.02c-40.036,2.419 -77.625,50.192 -91.37,111.803c-15.692,-15.531 -32.383,-32.051 -49.232,-48.727c37.767,-42.109 25.971,-89.427 -32.053,-106.305c-10.437,1.963 -20.873,3.925 -32.95,6.618c0,-0 -1.748,0.409 -4.837,0.111c-3.087,2.997 -6.173,5.994 -9.887,8.524c-0,0 0.671,0.394 -1.518,0.862c-0.7,1.246 -1.401,2.492 -2.539,3.225m829.332,-920.69c-0,-0 0.452,0.455 1.268,4.118c-2.342,24.845 -3.717,49.834 -7.41,74.476c-2.005,13.376 1.569,20.901 14.781,26.073c24.539,-25.782 48.782,-51.253 72.534,-76.208c-6.734,-13.512 -13.322,-15.341 -22.783,-4.968c-12.337,13.525 -25.519,26.28 -38.337,39.367c-1.647,-0.673 -3.294,-1.347 -4.941,-2.02c2.686,-25.037 6.251,-50.027 7.594,-75.135c0.489,-9.147 -4.314,-18.577 -6.703,-27.879c-2.807,-0.394 -5.614,-0.788 -8.421,-1.183c-4.208,5.519 -7.951,11.482 -12.709,16.478c-17.231,18.092 -35.338,35.388 -51.803,54.136c-3.381,3.85 -1.101,12.67 -1.43,19.2c3.557,1.602 7.114,3.205 10.671,4.808c7.161,-9.329 13.745,-19.184 21.645,-27.837c7.844,-8.593 17.012,-15.976 26.044,-23.426m244.763,735.931c6.42,3.61 12.839,7.219 19.259,10.829c-0.313,1.125 -0.627,2.25 -0.94,3.376c-23.36,-2.477 -46.719,-4.954 -74.615,-7.911c3.487,9.001 4.939,18.906 7.865,19.363c33.771,5.271 67.766,9.11 100.807,13.218c7.138,-21.02 1.486,-31.686 -15.913,-39c-16.813,-7.068 -32.281,-17.337 -53.091,-28.823c23.741,-6.32 41.952,-12.134 60.58,-15.856c18.554,-3.707 26.368,-12.93 21.003,-33.949c-31.485,-3.747 -63.604,-8.182 -95.872,-10.729c-4.686,-0.37 -10.085,8.298 -15.154,12.784c1.266,1.668 2.532,3.336 3.798,5.005c22.251,3.039 44.503,6.077 66.755,9.116c-17.719,9.275 -35.199,13.394 -52.307,18.713c-7.343,2.284 -13.911,7.061 -20.832,10.705c5.587,5.256 10.589,11.401 16.9,15.557c9.227,6.077 19.393,10.727 31.757,17.602m-889.003,647.812c-2.206,22.241 -7.792,44.799 -5.743,66.64c2.438,25.983 21.891,39.496 47.49,40.2c22.476,0.618 41.676,-12.192 47.513,-35.626c3.934,-15.792 4.954,-32.832 4.145,-49.159c-1.176,-23.714 -15.325,-39.942 -35.863,-45.67c-21.941,-6.12 -40.416,0.786 -57.542,23.615m-709.703,-841.46c12.722,1.986 25.444,3.972 39.152,6.112c3.116,-18.704 7.85,-35.559 8.131,-52.488c0.222,-13.367 -0.717,-32.374 -8.978,-38.799c-9.688,-7.536 -27.859,-4.167 -42.351,-5.528c-0.241,2.05 -0.482,4.1 -0.723,6.15c-23.906,-16.52 -44.56,-16.879 -50.782,1.962c-7.552,22.867 -9.615,47.548 -14.205,72.267c25.281,3.766 45.722,6.811 69.756,10.324m1480.56,-463.348c-27.02,-20.318 -51.516,-18.183 -77.662,6.77c-22.567,21.536 -26.048,45.057 -7.745,68.398c12.029,15.34 26.786,28.541 40.941,43.347c13.49,-10.393 28.207,-21.73 44.335,-34.156c-8.986,-12.072 -16.777,-23.406 -25.638,-33.831c-2.205,-2.594 -7.867,-2.249 -11.94,-3.254c0.001,4.199 -1.328,9.024 0.291,12.461c3.014,6.397 7.744,11.986 12.408,18.867c-18.598,10.101 -32.021,6.427 -42.906,-6.947c-11.233,-13.802 -13.427,-28.6 -1.945,-43.743c13.22,-17.436 36.074,-27.142 50.326,-20.166c16.199,7.928 24.976,20.766 24.026,39.809c-0.407,8.161 1.721,16.449 3.307,29.813c21.724,-27.583 18.92,-46.698 -7.798,-77.368m-515.64,1379.26c-8.652,-4.684 -17.305,-9.368 -27.146,-14.696c-3.942,3.126 -9.101,7.214 -14.063,11.147c14.64,23.512 28.002,29.172 55.725,24.11c16.669,-3.043 30.567,-10.642 34.915,-28.427c5.18,-21.184 -4.52,-35.899 -22.992,-45.34c13.23,-24.598 11.267,-42.099 -5.254,-51.491c-21.512,-12.228 -52.319,-2.53 -68.888,22.584c4.226,3.86 8.614,7.868 13.003,11.877c-0.084,-1.921 -0.168,-3.843 -0.252,-5.764c12.882,-3.403 25.678,-7.309 38.76,-9.541c1.547,-0.263 7.762,11.524 6.541,12.842c-8.03,8.668 -17.506,15.998 -29.596,26.426c0.07,0.385 1.082,5.959 2.072,11.414c29.771,-3.749 37.954,-1.358 40.237,11.943c2.584,15.054 -5.487,21.822 -23.062,22.916m-592.021,-1496.35c-17.702,-23.848 -35.404,-47.696 -54.058,-72.826c-5.815,4.824 -10.262,8.515 -15.113,12.54c14.698,20.117 28.452,38.942 45.485,62.255c-31.135,-8.483 -56.787,-16.238 -82.86,-22.122c-8.125,-1.834 -17.391,1.395 -31.78,2.895c26.021,35.043 47.226,63.601 68.039,91.63c14.144,-5.928 16.555,-12.202 7.831,-22.899c-11.614,-14.241 -21.91,-29.556 -36.381,-49.343c12.572,2.849 19.144,4.087 25.574,5.842c20.029,5.465 39.825,12.003 60.111,16.176c6.104,1.256 13.518,-3.859 20.332,-6.056c-1.792,-5.236 -3.585,-10.473 -7.18,-18.092m870.021,40.563c8.533,7.328 12.994,2.076 17.581,-5.164c16.302,-25.729 32.921,-51.258 49.331,-76.919c0.632,-0.987 0.356,-2.554 0.694,-5.533c-4.594,-2.345 -9.645,-4.924 -14.993,-7.654c-13.799,20.474 -26.52,39.348 -42.604,63.213c-2.88,-32.686 -4.408,-58.91 -7.923,-84.865c-1.144,-8.446 -7.474,-16.191 -13.734,-28.949c-23.46,36.159 -42.824,66.004 -62.862,96.89c6.62,3.868 11.119,6.497 16.482,9.632c13.905,-20.788 27.181,-40.636 43.081,-64.406c0.658,9.311 0.744,13.84 1.331,18.304c3.666,27.837 7.443,55.659 13.616,85.451m-691.908,-221.438c-35.058,12.208 -47.772,32.206 -40.454,63.628c8.304,35.659 28.962,53.816 57.719,50.412c15.334,-1.815 30.287,-13.506 46.322,-0.635c1.887,1.515 8.943,-3.408 13.603,-5.346c-2.048,-0.498 -4.095,-0.995 -6.143,-1.493c-0.721,-10.946 -3.496,-22.22 -1.807,-32.78c7.223,-45.152 -21.64,-78.53 -69.24,-73.786m102.156,1699.26c15.191,5.126 22.608,0.844 19.603,-18.028c-8.436,-1.396 -17.138,-2.741 -25.803,-4.298c-9.014,-1.621 -17.99,-3.447 -26.983,-5.184c-0.284,-1.957 -0.569,-3.915 -0.853,-5.872c13.52,-7.608 27.107,-15.1 40.545,-22.851c22.717,-13.104 32.324,-32.534 25.391,-50.9c-6.749,-17.879 -30.972,-29.245 -54.331,-24.083c-8.44,1.865 -16.204,6.994 -24.078,11.023c-1.489,0.762 -2.039,3.357 -3.606,6.146c3.487,4.597 7.074,9.327 10.668,14.065c6.206,-3.39 11.241,-8.527 15.847,-8.168c10.131,0.79 20.045,4.357 30.047,6.791c-4.178,9.076 -6.5,19.94 -13.045,26.737c-6.855,7.119 -17.59,10.702 -26.942,15.178c-20.004,9.574 -30.491,25.023 -30.959,49.654c20.346,3.043 40.692,6.085 64.499,9.79m-290.659,-1566.3c10.088,18.83 20.176,37.66 31.105,58.059c20.111,-10.974 40.412,-19.214 57.003,-32.196c9.564,-7.483 17.819,-22.406 18.394,-34.378c1.106,-22.994 -10.293,-43.991 -29.749,-56.351c-9.694,-6.159 -26.048,-8.505 -36.804,-4.889c-20.552,6.912 -39.255,19.325 -60.674,30.468c7.244,13.598 13.339,25.039 20.725,39.287m528.073,1511.74c4.498,-8.36 13.29,-17.147 12.51,-24.982c-1.237,-12.424 -5.571,-28.585 -14.508,-35.333c-17.186,-12.978 -38.183,-9.631 -56.503,1.942c-16.062,10.146 -15.761,15.685 0.63,28.149c4.703,-3.727 9.12,-9.973 14.383,-10.793c9.296,-1.449 19.106,0.407 28.702,0.88c-1.933,9.807 -1.226,21.447 -6.451,28.965c-6.856,9.864 -18.378,16.49 -27.913,24.485c-15.915,13.345 -20.755,29.9 -14.929,51.012c27.078,-1.431 53.604,-2.832 80.341,-4.245l-0,-20.856l-61.599,0c17.481,-15.015 30.327,-26.049 45.337,-39.224m722.34,-1006.02c-25.726,4.622 -51.453,9.244 -78.589,14.119c1.895,7.581 3.304,13.215 4.757,19.029c13.424,-2.041 25.446,-3.868 37.932,-5.766c1.442,6.56 2.64,11.909 3.792,17.268c5.963,27.749 5.752,28.718 -21.394,37.365c-13.935,4.438 -11.212,12.226 -6.207,24.404c16.524,-6.694 31.945,-12.942 49.667,-20.121c28.303,11.243 52.914,-1.809 50.354,-30.805c-1.736,-19.669 -6.704,-39.052 -10.507,-60.114c-10.134,1.43 -18.21,2.57 -29.805,4.621m-93.253,-30.199c18.902,24.676 39.915,29.436 71.326,16.156c30.237,-12.784 41.206,-36.562 30.958,-67.107c-10.676,-31.819 -34.278,-44.467 -66.284,-35.518c-44.252,12.373 -56.499,39.607 -36,86.469m-378.183,-454.861c38.503,-9.454 61.925,-58.937 42.217,-89.19c-12.365,-18.981 -43.461,-31.881 -63.262,-26.243c-23.305,6.636 -43.467,35.084 -44.017,62.106c-0.458,22.483 14.215,41.239 39.707,49.644c7.102,2.342 14.81,2.845 25.355,3.683m-363.126,-93.02c-3.039,-8.992 -6.077,-17.983 -10.195,-30.169c19.812,-0 33.651,0.641 47.364,-0.391c4.114,-0.31 7.878,-5.284 11.802,-8.122c-3.937,-2.545 -7.75,-7.028 -11.832,-7.286c-14.262,-0.905 -28.618,-0.351 -43.364,-0.351l-0,-32.162c18.831,0 36.674,0.558 54.438,-0.384c4.548,-0.241 8.845,-5.221 13.258,-8.023c-4.214,-2.531 -8.363,-7.112 -12.651,-7.245c-21.485,-0.666 -43.026,-0.612 -64.499,0.323c-3.982,0.174 -11.022,5.469 -11.095,8.533c-0.804,33.602 -0.504,67.23 -0.504,101.711c28.71,-0 53.65,0.361 78.556,-0.399c3.637,-0.111 7.111,-5.572 10.66,-8.557c-3.41,-2.444 -6.727,-6.83 -10.245,-6.997c-15.922,-0.757 -31.901,-0.322 -51.693,-0.481m122.103,-74.896c7.564,4.282 15.053,8.705 22.717,12.8c6.241,3.335 12.693,6.277 22.643,11.154c-9.025,-36.431 -57.802,-51.168 -80.224,-30.336c-12.945,12.027 -11.782,32.427 3.514,43.154c8.989,6.305 20.177,9.531 28.976,16.036c7.924,5.858 13.939,14.299 20.795,21.6c-11.019,2.877 -21.957,7.353 -33.093,7.915c-5.092,0.258 -10.389,-7.478 -15.931,-11.066c-5.746,-3.719 -11.902,-6.805 -17.878,-10.168c-1.356,1.723 -2.712,3.446 -4.067,5.168c2.444,6.152 3.685,13.226 7.558,18.284c11.988,15.662 55.159,21.273 71.712,10.108c17.532,-11.825 17.616,-35.053 -0.63,-46.641c-11.049,-7.018 -23.947,-11.179 -34.776,-18.464c-5.936,-3.993 -9.301,-11.809 -13.826,-17.9c6.368,-3.914 12.736,-7.827 22.51,-11.644m-962.366,987.782c1.539,6.529 3.077,13.058 4.961,21.05c35.791,-4.825 70.391,-9.489 106.66,-14.378c-0.801,-7.218 -1.429,-12.873 -2.138,-19.26c-12.654,1.272 -23.375,2.351 -36.002,3.621c-1.657,-12.228 -2.908,-23.021 -4.616,-33.741c-4.148,-26.018 -19.309,-39.059 -41.492,-35.975c-24.758,3.443 -35.342,19.001 -31.582,46.357c1.314,9.562 2.537,19.137 4.209,32.326m792.29,-975.329c-0.598,-4.8 -1.643,-9.594 -1.711,-14.401c-0.217,-15.318 -7.319,-17.617 -21.751,-10.271c2.897,20.048 6.131,40.373 8.704,60.781c2.934,23.262 -5.668,34.349 -27.967,37.138c-18.58,2.323 -29.847,-6.976 -33.225,-28.421c-2.471,-15.69 -4.097,-31.517 -5.945,-47.3c-1.561,-13.335 -7.539,-18.513 -21.962,-11.195c2.847,20.862 4.94,42.072 8.777,62.961c6.111,33.27 24.725,45.405 57.89,39.204c35.343,-6.608 47.374,-23.553 41.602,-58.227c-1.474,-8.856 -2.342,-17.813 -4.412,-30.269m904.163,853.509c5.536,-0.17 11.085,-0.658 16.606,-0.449c15.184,0.574 17.601,-6.51 12.394,-19.179c-21.321,-0 -41.982,0.054 -62.643,-0.014c-23.737,-0.079 -33.314,-8.618 -33.449,-29.644c-0.129,-20.245 8.614,-28.88 30.92,-30.391c20.589,-1.394 41.184,-2.7 63.401,-4.151c-0.364,-6.649 -0.672,-12.296 -1.074,-19.648c-21.679,1.247 -41.571,2.64 -61.486,3.48c-32.101,1.353 -48.83,18.237 -48.328,49.298c0.562,34.794 17.008,51.531 50.579,51.35c9.692,-0.052 19.382,-0.36 33.08,-0.652m-1614.81,-42.192c11.429,32.47 0.93,48.274 -32.387,48.47c-14.542,0.086 -29.107,0.221 -43.622,-0.481c-14.326,-0.693 -18.8,4.851 -13.224,20.402c22.51,-0 45.24,0.513 67.936,-0.133c27.271,-0.775 41.39,-17.501 42.179,-48.51c0.756,-29.704 -13.929,-49.955 -39.613,-51.463c-23.335,-1.371 -46.814,-0.29 -71.073,-0.29l0,17.708c2.756,0.949 4.025,1.751 5.308,1.773c17.306,0.289 34.708,-0.539 51.887,1.055c10.417,0.966 20.49,5.639 32.609,11.469m66.899,-302.784c-6.175,0.178 -12.482,1.255 -18.501,0.37c-21.302,-3.131 -37.999,-17.716 -39.859,-33.949c-2.181,-19.028 8.755,-32.502 31.601,-42.159c5.906,-2.496 9.751,-9.87 16.621,-17.23c-34.919,-3.311 -57.461,14.98 -64.675,47.532c-6.414,28.946 9.029,51.849 42.816,63.498c28.341,9.772 52.58,-1.154 66.513,-29.98c12.94,-26.773 9.3,-46.522 -14.581,-61.369c-0,9.029 -1.996,16.589 0.354,22.387c8.952,22.082 0.391,37.26 -20.289,50.9m70.767,-260.246c-8.244,5.993 -10.32,11.654 -1.487,19.739c14.819,13.564 28.131,28.798 43.155,42.111c18.764,16.626 39.777,14.022 60.966,-5.995c21.851,-20.645 27.109,-43.898 11.093,-62.365c-16.19,-18.67 -35.104,-34.977 -52.746,-52.243c-13.412,11.874 -13.652,12.103 -3.941,22.25c11.502,12.019 23.678,23.394 35.187,35.407c15.742,16.432 16.055,27.946 1.813,43.127c-14.789,15.764 -28.029,16.092 -44.894,0.557c-15.739,-14.496 -31.136,-29.365 -49.146,-42.588m1365.92,242.401c2.899,5.326 5.797,10.653 8.675,15.942c8.675,-4.431 8.675,-4.431 -7.832,-56.176c8.154,-3.728 16.488,-7.538 25.743,-11.77c8.944,17.672 16.311,33.264 24.78,48.232c2.123,3.751 7.789,5.498 11.827,8.166c1.002,-4.588 4.222,-10.206 2.648,-13.598c-10.653,-22.937 -22.319,-45.404 -34.215,-69.137c-33.888,16.984 -65.689,32.922 -98.993,49.613c4.413,7.111 7.421,11.957 10.303,16.602c14.167,-6.56 26.563,-12.299 40.621,-18.808c5.418,10.264 10.172,19.271 16.443,30.934m-1410.39,-123.063c18.134,13.658 36.269,27.317 55.587,41.868c4.056,-6.125 7.232,-10.921 10.678,-16.123c-12.482,-10.112 -23.585,-19.106 -35.303,-28.598c7.738,-10.351 14.311,-19.184 20.927,-27.986c11.472,-15.264 11.483,-15.256 -2.184,-22.9c-10.573,13.32 -21.216,26.729 -32.74,41.247c-8.369,-6.557 -15.709,-12.308 -23.614,-18.502c13.993,-18.868 26.677,-35.972 43.747,-58.989c-10.922,1.034 -18.387,-0.457 -20.644,2.307c-16.489,20.189 -31.933,41.232 -48.167,62.611c10.985,8.739 20.151,16.03 31.713,25.065m893.91,-372.838c-38.756,-10.793 -38.756,-10.793 -43.218,4.328c10.241,3.306 20.507,6.62 31.834,10.277c-6.443,25.808 -11.96,50.608 -18.957,74.983c-4.665,16.255 1.969,19.438 16.441,17.978c6.244,-24.134 13.332,-47.235 17.921,-70.821c2.908,-14.943 9.494,-18.469 22.748,-13.621c10.323,3.776 19.104,4.787 18.746,-11.732c-14.251,-3.622 -28.186,-7.165 -45.515,-11.392m-952.285,669.226c7.29,-22.854 14.961,-45.6 21.556,-68.653c1.35,-4.722 -1.335,-10.599 -2.159,-15.943c-4.316,3.837 -10.787,6.876 -12.556,11.655c-6.087,16.447 -10.53,33.502 -15.675,50.574c-31.16,-8.898 -59.574,-17.012 -89.34,-25.512c-1.923,6.841 -3.496,12.433 -5.418,19.266c34.41,9.865 67.484,19.347 103.592,28.613m14.738,-114.653c-26.289,-10.015 -52.578,-20.031 -84.547,-32.212c1.327,10.17 0.345,20.369 3.169,21.563c31.364,13.259 63.318,25.124 94.352,37.073c12.11,-17.547 1.443,-21.677 -12.974,-26.424m1009.45,-510.158c6.578,-20.454 6.578,-20.454 -12.443,-25.228c-11.414,33.498 -22.871,67.12 -34.115,100.116c12.166,9.028 18.772,8.944 22.989,-4.989c6.797,-22.458 15.049,-44.476 23.569,-69.899m226.94,143.775c-14.535,18.277 -29.07,36.555 -44.517,55.979c6.24,4.169 11.023,7.364 16.352,10.925c20.48,-25.524 39.761,-49.857 59.395,-73.902c10.1,-12.368 3.742,-17.49 -8.133,-22.098c-7.526,9.505 -14.365,18.141 -23.097,29.096m-755.622,1447.41c9.868,2.128 19.735,4.256 30.742,6.63c1.646,-7.105 2.965,-12.797 4.748,-20.495c-17.387,-4.135 -33.705,-8.015 -51.075,-12.146c-2.117,7.053 -3.803,12.671 -6.036,20.11c6.939,1.917 12.662,3.498 21.621,5.901m477.872,1.545c16.665,-0.819 33.331,-1.637 52.207,-2.565c-1.428,-10.533 -2.278,-16.804 -3.283,-24.222c-14.908,3.081 -27.656,5.609 -40.351,8.378c-8.251,1.801 -14.72,5.028 -8.573,18.409m560.356,-549.772c-2.771,-6.61 -4.562,-14.037 -8.948,-19.302c-1.22,-1.464 -12.424,2.026 -14.865,5.887c-2.458,3.888 -0.952,15.457 0.979,16.002c6.549,1.85 14.055,0.309 22.834,-2.587m-1575.8,7.495c5.67,-4.082 12.734,-7.249 16.317,-12.703c1.415,-2.153 -3.905,-11.986 -8.018,-13.609c-4.186,-1.652 -15.203,2.237 -15.314,4.155c-0.392,6.823 2.588,13.841 7.015,22.157Z" style="fill:#48a2de;fill-rule:nonzero;"/><path d="M924.559,1687.14l-186.359,-0c-0,-7.987 -0,-14.633 1.311,-24.408c1.312,-45.588 1.312,-88.047 1.312,-130.507c-2.492,0.033 -4.984,0.066 -7.476,0.099l-0,125.219l-121.054,0c-0,-22.252 -0.003,-44.041 0,-65.829c0.004,-25.553 -1.119,-51.169 0.303,-76.642c1.792,-32.108 16.223,-57.893 45.808,-76.316c2.986,-1.454 4.139,-1.995 6.856,-2.175c7.097,0.588 12.612,0.775 18.699,0.721c0.159,-0.112 -0.254,0.018 -1.929,-0.777c-5.96,-2.489 -10.659,-4.055 -16.084,-6.696c-4.377,-6.529 -8.029,-11.982 -11.68,-17.435c0,-0 -0.108,0.093 0.057,-1.216c-1.364,-3.173 -2.894,-5.036 -4.423,-6.899c0,0 0.109,-0.091 0.215,-1.955c2.962,-19.988 5.82,-38.112 8.677,-56.236c3.656,-3.441 7.313,-6.883 13.133,-11.705c21.204,-13.457 41.385,-10.823 61.736,-6.005c6.014,5.395 12.027,10.79 19.335,17.972c2.486,2.588 3.679,3.391 4.871,4.193c-0,0 0.324,-0.471 0.244,1.42c0.075,21.477 0.231,41.063 0.331,60.649c-0.056,0.001 0.035,0.06 -1.065,0.587c-2.079,2.696 -3.059,4.865 -3.637,7.298c0.402,0.265 -0.348,-0.339 -1.68,0.153c-5.653,2.877 -9.974,5.262 -18.397,9.911c12.175,4.012 16.391,5.402 20.582,6.847c-0.025,0.055 0.1,-0.031 0.688,1.259c7.771,10.088 14.952,18.886 20.769,28.191c-2.605,2.98 -3.845,5.452 -6.426,8.128c-4.216,2.948 -7.091,5.692 -9.966,8.436c1.731,1.246 3.462,2.491 5.194,3.736c2.166,-4.014 4.332,-8.029 7.815,-13.071c2.496,-2.966 3.676,-4.904 6.224,-6.437c13.141,1.533 24.915,2.661 43.836,4.473c-28.714,-12.505 -45.22,-29.172 -48.483,-56.898c0.027,-3.172 -0.067,-4.985 0.388,-8.325c2.058,-8.849 3.566,-16.172 5.074,-23.494c1.296,-1.744 2.591,-3.487 5.356,-6.648c2.108,-2.756 2.746,-4.095 3.385,-5.434c-0,-0 -0.536,-0.41 0.762,-0.405c2.009,-1.229 2.719,-2.464 3.43,-3.698c-0,0 -0.671,-0.394 0.939,-0.38c4.862,-2.737 8.114,-5.488 11.366,-8.24c0,0 1.748,-0.409 4.248,-0.648c12.655,-1.606 22.811,-2.973 32.967,-4.341c55.507,14.84 67.303,62.158 29.536,104.267c16.849,16.676 33.54,33.196 49.232,48.727c13.745,-61.611 51.334,-109.384 91.37,-111.803c-40.318,-36.373 -51.992,-77.688 -22.872,-127.865c5.26,-6.689 8.444,-11.533 12.542,-16.789c2.055,-1.226 2.813,-2.309 4.105,-4.106c2.092,-1.254 2.872,-2.343 4.496,-3.773c3.162,-1.421 5.085,-2.784 8.666,-4.208c28.876,-10.574 56.567,-9.969 84.888,-2.257c9.344,8.264 18.304,15.203 27.265,22.142c4.495,5.082 8.991,10.165 13.594,15.369c0.309,-0.088 1.249,-0.061 1.603,-0.503c11.934,-14.92 24.975,-31.159 46.295,-22.391c21.239,8.733 27.149,30.13 24.734,50.587c-5.754,48.726 -14.171,97.137 -23.264,147.146c-3.375,2.149 -4.998,2.827 -6.621,3.504c1.518,0.866 3.037,1.733 4.555,2.599c4.293,16.655 8.585,33.309 12.47,53.617c-0.392,26.458 -0.649,49.268 -0.299,72.068c0.562,36.515 1.526,73.023 2.32,109.534l-0,42.544l-288.46,0c3.229,-14.369 6.232,-27.727 10.193,-44.57c0.958,-48.507 0.958,-93.529 0.958,-138.552c-1.519,0.006 -3.039,0.011 -4.558,0.017l-0,138.224m-209.678,-249.354c-1.552,1.481 -3.103,2.962 -4.654,4.443c2.34,-0.266 4.681,-0.532 10.066,-0.775c2.692,-0.361 5.385,-0.722 8.077,-1.082c-0.052,-0.877 -0.104,-1.754 -0.156,-2.63c-3.655,-0 -7.31,-0 -13.333,0.044m419.642,-62.574c-15.425,11.29 -15.425,11.29 -1.205,21.265c1.398,-6.889 2.868,-14.13 6.39,-22.869c2.778,-3.787 5.556,-7.574 8.335,-11.36c-1.528,-0.699 -3.056,-1.398 -4.584,-2.097c-2.042,4.895 -4.085,9.791 -8.936,15.061m-55.314,33.913c-12.481,-1.991 -24.962,-3.982 -37.444,-5.974c-0.133,2.661 -0.267,5.321 -0.401,7.982c11.809,-0 23.618,-0 37.845,-2.008m-328.898,86.888c-3.843,7.805 -7.685,15.61 -11.528,23.415c2.137,0.969 4.273,1.939 6.41,2.909c2.461,-9.162 4.921,-18.324 5.118,-26.324m402.577,-168.848c-0.434,4.043 -0.867,8.086 -1.3,12.129c1.945,-0.092 3.891,-0.183 5.836,-0.274c-0.591,-3.942 -1.183,-7.883 -4.536,-11.855m15.627,89.877c-2.65,-2.031 -5.299,-4.062 -7.949,-6.093c-0.842,2.21 -1.684,4.419 -2.526,6.629c3.843,0.605 7.685,1.21 10.475,-0.536m-17.273,-69.431c-1.201,1.147 -2.402,2.294 -3.602,3.44c0.475,0.497 0.95,0.995 1.425,1.492c1.201,-1.149 2.401,-2.297 2.177,-4.932m-225.005,179.186c-1.192,1.138 -2.384,2.276 -3.576,3.414c0.471,0.493 1.327,1.442 1.359,1.414c1.258,-1.062 2.44,-2.212 2.217,-4.828m217.29,-127.858c-0.095,2.246 -0.329,4.504 -0.139,6.726c0.03,0.351 1.976,0.538 3.036,0.801c-0.358,-2.196 -0.717,-4.392 -2.897,-7.527m37.246,43.606c1.663,0.017 3.327,0.034 4.991,0.05c0.006,-0.69 0.058,-1.98 0.013,-1.983c-1.654,-0.127 -3.317,-0.133 -5.004,1.933m-31.218,-156.241c1.145,-1.074 2.312,-2.129 3.378,-3.277c0.061,-0.065 -0.696,-0.892 -1.072,-1.364c-1.201,1.126 -2.401,2.251 -2.306,4.641m5.604,10.28c0.715,-0.237 1.429,-0.475 2.144,-0.712c-0.719,-0.231 -1.438,-0.462 -2.144,0.712m-299.906,169.312c0.48,0.66 0.96,1.321 1.44,1.981c-0.098,-0.919 -0.195,-1.838 -1.44,-1.981m322.832,-35.95c-0.483,-0.664 -0.966,-1.327 -1.45,-1.991c0.099,0.924 0.198,1.847 1.45,1.991m-442.63,3.86c-0.327,0.839 -0.654,1.677 -0.981,2.516c0.924,-0.259 1.848,-0.518 0.981,-2.516Z" style="fill:#000001;fill-rule:nonzero;"/><path d="M1255.38,1458.31c-33.809,-32.176 -18.914,-95.729 32.171,-104.09c13.397,1.122 23.555,2.139 33.712,3.157c0,0 1.702,0.653 3.018,2.145c5.08,3.664 8.844,5.835 12.608,8.006c0.493,1.198 1.256,2.189 3.365,4.491c2.247,2.296 3.415,3.075 4.584,3.854c-0,0 1.005,-0.827 0.665,0.812c1.197,3.379 2.734,5.12 4.272,6.861c-0,-0 0.238,-0.179 0.076,1.5c1.827,8.955 3.818,16.23 5.808,23.506c-0.159,3.015 -0.318,6.03 -1.032,11.989c-8.905,17.292 -17.255,31.639 -25.332,45.518c18.683,6.432 23.737,-12.855 34.185,-23.342c6.29,-4.262 12.47,-8.703 18.93,-12.69c2.229,-1.375 5.155,-1.62 4.101,-1.312c-6.649,-14.096 -16.982,-27.929 -19.52,-43.069c-5.22,-31.145 12.384,-56.927 39.544,-64.512c27.805,-7.764 56.846,3.58 69.999,27.346c14.9,26.923 9.222,54.912 -15.454,75.804c-2.101,1.779 -4.537,3.163 -9.212,5.052c-2.753,2.39 -3.113,4.458 -3.473,6.526c2.748,-0.986 5.496,-1.971 8.244,-2.957c5.375,0.175 11.784,-1.501 15.954,0.83c23.786,13.296 41.165,34.795 42.788,60.652c3.282,52.302 0.979,104.954 0.979,159.426c-39.457,0 -78.143,0 -118.648,-2.555c-1.817,-40.868 -1.817,-79.181 -1.817,-117.493c-10.107,39.76 -10.803,79.699 -5.318,119.812l0,33.965c-58.218,0 -116.109,0 -176.093,-2.102c-2.157,-60.569 -2.222,-119.036 -2.286,-177.502c13.152,-14.93 26.304,-29.859 41.721,-43.819c5.186,0.353 8.106,-0.265 11.026,-0.882c-3.188,-1.642 -6.376,-3.284 -9.565,-4.927m112.777,20.896c-3.418,-1.212 -6.836,-2.423 -10.253,-3.634c-0.259,2.177 -0.517,4.354 -0.775,6.53c4.101,-0.213 8.201,-0.427 11.028,-2.896m11.684,17.488c-1.766,0.173 -3.532,0.346 -5.298,0.52c0.977,1.227 1.961,3.448 2.93,3.441c1.347,-0.01 2.682,-1.688 2.368,-3.961m-59.24,-28.583c-2.272,0.255 -4.544,0.509 -6.816,0.764c0.301,1.137 0.602,2.274 0.903,3.411c1.652,-0.603 3.304,-1.205 5.913,-4.175m64.332,42.405c-0.911,-0.232 -1.822,-0.465 -2.733,-0.697c0.586,0.575 1.173,1.15 2.733,0.697m4.151,12.504c-0.903,-0.231 -1.805,-0.462 -2.708,-0.693c0.581,0.57 1.161,1.139 2.708,0.693m11.982,-90.472c0.491,0.673 0.983,1.346 1.474,2.019c-0.101,-0.938 -0.203,-1.875 -1.474,-2.019m9.727,7.11c-0,0 -0.476,0.286 -0,0m-138.249,24.855c-0,0 0.47,-0.282 -0,0Z" style="fill-rule:nonzero;"/><path d="M1000.7,1250.56c-3.183,4.845 -6.367,9.689 -10.659,15.106c-3.119,-4.245 -6.666,-8.984 -6.916,-13.891c-5.723,-112.197 24.28,-211.236 108.081,-290.111c41.438,-39.003 83.234,-77.629 124.491,-116.821c55.276,-52.509 76.65,-115.837 51.28,-188.976c-25.878,-74.604 -80.341,-120.828 -158.103,-134.871c-128.103,-23.135 -222.313,42.341 -254.379,174.012c-4.065,16.69 -7.259,33.592 -11.396,52.913c-52.12,-6.178 -103.336,-12.249 -154.473,-18.31c12.052,-154.332 95.594,-286.284 250.129,-325.961c114.856,-29.489 227.223,-23.472 333.322,32.913c173.457,92.183 216.003,315.356 87.156,463.439c-43.114,49.55 -91.668,94.792 -140.779,138.589c-57.115,50.936 -85.691,112.669 -85.641,188.559c0.006,8.992 -1.22,17.984 -1.827,28.886c-8.912,-5.028 -17.872,-11.967 -27.063,-20.505c-0.231,-1.6 0.165,-2.089 1.66,-1.291c5.05,0.08 11.391,-0.031 11.7,-1.453c1.756,-8.084 2.462,-16.464 2.814,-24.773c2.726,-64.518 25.272,-119.691 73.515,-164.227c46.9,-43.298 93.18,-87.337 138.221,-132.555c31.993,-32.12 57.755,-69.177 72.194,-112.881c45.862,-138.819 -11.111,-281.025 -142.552,-351.816c-90.634,-48.812 -188.23,-54.954 -287.37,-37.23c-162.269,29.009 -254.869,151.73 -269.958,309.288c42.423,4.391 84.816,8.779 126.564,13.101c6.723,-24.877 12.071,-48.519 19.486,-71.495c54.831,-169.891 231.417,-187.38 333.711,-126.47c77.986,46.436 118.488,129.793 103.798,214.375c-7.48,43.072 -31.865,76.468 -61.884,105.896c-43.11,42.258 -87.807,82.891 -131.312,124.753c-50.03,48.14 -82.169,106.474 -91.511,175.382c-4.279,31.565 -2.178,63.996 -2.778,96.09c0.193,0.055 0.479,0.335 0.479,0.335Z" style="fill:#0b0f11;fill-rule:nonzero;"/><path d="M1860.36,1185.34c-11.065,-6.067 -21.231,-10.717 -30.458,-16.794c-6.311,-4.156 -11.313,-10.301 -16.9,-15.557c6.921,-3.644 13.489,-8.421 20.832,-10.705c17.108,-5.319 34.588,-9.438 52.307,-18.713c-22.252,-3.039 -44.504,-6.077 -66.755,-9.116c-1.266,-1.669 -2.532,-3.337 -3.798,-5.005c5.069,-4.486 10.468,-13.154 15.154,-12.784c32.268,2.547 64.387,6.982 95.872,10.729c5.365,21.019 -2.449,30.242 -21.003,33.949c-18.628,3.722 -36.839,9.536 -60.58,15.856c20.81,11.486 36.278,21.755 53.091,28.823c17.399,7.314 23.051,17.98 15.913,39c-33.041,-4.108 -67.036,-7.947 -100.807,-13.218c-2.926,-0.457 -4.378,-10.362 -7.865,-19.363c27.896,2.957 51.255,5.434 74.615,7.911c0.313,-1.126 0.627,-2.251 0.94,-3.376c-6.42,-3.61 -12.839,-7.219 -20.558,-11.637Z" style="fill:#f4fafd;fill-rule:nonzero;"/><path d="M973.478,1832.6c16.303,-21.468 34.778,-28.374 56.719,-22.254c20.538,5.728 34.687,21.956 35.863,45.67c0.809,16.327 -0.211,33.367 -4.145,49.159c-5.837,23.434 -25.037,36.244 -47.514,35.626c-25.598,-0.704 -45.051,-14.217 -47.489,-40.2c-2.049,-21.841 3.537,-44.399 6.566,-68.001m17.523,65.212c2.15,14.018 10.67,20.029 24.471,20.018c14.939,-0.012 21.176,-9.645 22.771,-22.154c1.815,-14.237 4.556,-29.526 1.099,-42.854c-2.309,-8.899 -14.557,-20.77 -22.689,-21.032c-7.961,-0.257 -20.545,11.08 -23.547,19.899c-4.445,13.059 -2.221,28.388 -2.105,46.123Z" style="fill:#f6fbfd;fill-rule:nonzero;"/><path d="M261.155,992.27c-22.237,-3.279 -42.678,-6.324 -67.959,-10.09c4.59,-24.719 6.653,-49.4 14.205,-72.267c6.222,-18.841 26.876,-18.482 50.782,-1.962c0.241,-2.05 0.482,-4.1 0.723,-6.15c14.492,1.361 32.663,-2.008 42.351,5.528c8.261,6.425 9.2,25.432 8.978,38.799c-0.281,16.929 -5.015,33.784 -8.131,52.488c-13.708,-2.14 -26.43,-4.126 -40.949,-6.346m4.474,-61.543c-2.268,13.28 -4.536,26.559 -7.118,41.674c11.54,1.187 20.741,2.134 30.834,3.172c2.247,-12.548 5.397,-23.216 5.62,-33.945c0.136,-6.582 -2.725,-17.384 -6.905,-18.888c-5.772,-2.078 -14.056,2.822 -22.431,7.987m-16.685,-1.684c-6.977,-3.953 -13.953,-7.907 -20.929,-11.86c-6.234,14.919 -12.467,29.837 -19.95,47.746c15.22,1.478 24.512,2.381 35.134,3.412c2.208,-13.146 4.122,-24.534 5.745,-39.298Z" style="fill:#f5fafd;fill-rule:nonzero;"/><path d="M1616.45,449.757c-8.587,7.914 -17.755,15.297 -25.599,23.89c-7.9,8.653 -14.484,18.508 -21.645,27.837c-3.557,-1.603 -7.114,-3.206 -10.671,-4.808c0.329,-6.53 -1.951,-15.35 1.43,-19.2c16.465,-18.748 34.572,-36.044 51.803,-54.136c4.758,-4.996 8.501,-10.959 12.709,-16.478c2.807,0.395 5.614,0.789 8.421,1.183c2.389,9.302 7.192,18.732 6.703,27.879c-1.343,25.108 -4.908,50.098 -7.594,75.135c1.647,0.673 3.294,1.347 4.941,2.02c12.818,-13.087 26,-25.842 38.337,-39.367c9.461,-10.373 16.049,-8.544 22.783,4.968c-23.752,24.955 -47.995,50.426 -72.534,76.208c-13.212,-5.172 -16.786,-12.697 -14.781,-26.073c3.693,-24.642 5.068,-49.631 7.799,-76.593c0.2,-3.094 0.011,-4.071 -0.177,-5.047c-0.642,0.861 -1.283,1.722 -1.925,2.582Z" style="fill:#f5fafd;fill-rule:nonzero;"/><path d="M1744.6,530.214c25.632,29.612 28.436,48.727 6.712,76.31c-1.586,-13.364 -3.714,-21.652 -3.307,-29.813c0.95,-19.043 -7.827,-31.881 -24.026,-39.809c-14.252,-6.976 -37.106,2.73 -50.326,20.166c-11.482,15.143 -9.288,29.941 1.945,43.743c10.885,13.374 24.308,17.048 42.906,6.947c-4.664,-6.881 -9.394,-12.47 -12.408,-18.867c-1.619,-3.437 -0.29,-8.262 -0.291,-12.461c4.073,1.005 9.735,0.66 11.94,3.254c8.861,10.425 16.652,21.759 25.638,33.831c-16.128,12.426 -30.845,23.763 -44.335,34.156c-14.155,-14.806 -28.912,-28.007 -40.941,-43.347c-18.303,-23.341 -14.822,-46.862 7.745,-68.398c26.146,-24.953 50.642,-27.088 78.748,-5.712Z" style="fill:#f3f9fd;fill-rule:nonzero;"/><path d="M1229.57,1908.41c15.885,-1.088 23.956,-7.856 21.372,-22.91c-2.283,-13.301 -10.466,-15.692 -40.237,-11.943c-0.99,-5.455 -2.002,-11.029 -2.072,-11.414c12.09,-10.428 21.566,-17.758 29.596,-26.426c1.221,-1.318 -4.994,-13.105 -6.541,-12.842c-13.082,2.232 -25.878,6.138 -38.76,9.541c0.084,1.921 0.168,3.843 0.252,5.764c-4.389,-4.009 -8.777,-8.017 -13.003,-11.877c16.569,-25.114 47.376,-34.812 68.888,-22.584c16.521,9.392 18.484,26.893 5.254,51.491c18.472,9.441 28.172,24.156 22.992,45.34c-4.348,17.785 -18.246,25.384 -34.915,28.427c-27.723,5.062 -41.085,-0.598 -55.725,-24.11c4.962,-3.933 10.12,-8.021 14.063,-11.147c9.841,5.328 18.494,10.012 28.836,14.69Z" style="fill:#f7fbfe;fill-rule:nonzero;"/><path d="M636.755,413.264c2.694,6.428 4.487,11.665 6.279,16.901c-6.814,2.197 -14.228,7.312 -20.332,6.056c-20.286,-4.173 -40.082,-10.711 -60.111,-16.176c-6.43,-1.755 -13.002,-2.993 -25.574,-5.842c14.471,19.787 24.767,35.102 36.381,49.343c8.724,10.697 6.313,16.971 -7.831,22.899c-20.813,-28.029 -42.018,-56.587 -68.039,-91.63c14.389,-1.5 23.655,-4.729 31.78,-2.895c26.073,5.884 51.725,13.639 82.86,22.122c-17.033,-23.313 -30.787,-42.138 -45.485,-62.255c4.851,-4.025 9.298,-7.716 15.113,-12.54c18.654,25.13 36.356,48.978 54.959,74.017Z" style="fill:#f5fafd;fill-rule:nonzero;"/><path d="M1504.66,451.654c-4.957,-28.81 -8.734,-56.632 -12.4,-84.469c-0.587,-4.464 -0.673,-8.993 -1.331,-18.304c-15.9,23.77 -29.176,43.618 -43.081,64.406c-5.363,-3.135 -9.862,-5.764 -16.482,-9.632c20.038,-30.886 39.402,-60.731 62.862,-96.89c6.26,12.758 12.59,20.503 13.734,28.949c3.514,25.955 5.043,52.179 7.923,84.865c16.084,-23.865 28.805,-42.739 42.604,-63.213c5.348,2.73 10.399,5.309 14.993,7.654c-0.338,2.979 -0.062,4.546 -0.694,5.533c-16.41,25.661 -33.029,51.19 -49.331,76.919c-4.587,7.24 -9.048,12.492 -18.797,4.182Z" style="fill:#f5fafd;fill-rule:nonzero;"/><path d="M815.615,230.674c45.952,-4.22 74.815,29.158 67.592,74.31c-1.689,10.56 1.086,21.834 1.807,32.78c2.048,0.498 4.095,0.995 6.143,1.493c-4.66,1.938 -11.716,6.861 -13.603,5.346c-16.035,-12.871 -30.988,-1.18 -46.322,0.635c-28.757,3.404 -49.415,-14.753 -57.719,-50.412c-7.318,-31.422 5.396,-51.42 42.102,-64.152m43.268,82.839c-0.189,-14.658 3.187,-30.673 -1.708,-43.54c-3.837,-10.086 -17.291,-21.514 -27.611,-22.737c-10.474,-1.241 -25.174,6.732 -32.935,15.286c-11.448,12.619 -2.907,45.715 11.815,58.494c13.609,11.814 28.301,10.358 50.439,-7.503Z" style="fill:#f4f9fd;fill-rule:nonzero;"/><path d="M914.392,1930.13c-22.076,-3.374 -42.422,-6.416 -62.768,-9.459c0.468,-24.631 10.955,-40.08 30.959,-49.654c9.352,-4.476 20.087,-8.059 26.942,-15.178c6.545,-6.797 8.867,-17.661 13.045,-26.737c-10.002,-2.434 -19.916,-6.001 -30.047,-6.791c-4.606,-0.359 -9.641,4.778 -15.847,8.168c-3.594,-4.738 -7.181,-9.468 -10.668,-14.065c1.567,-2.789 2.117,-5.384 3.606,-6.146c7.874,-4.029 15.638,-9.158 24.078,-11.023c23.359,-5.162 47.582,6.204 54.331,24.083c6.933,18.366 -2.674,37.796 -25.391,50.9c-13.438,7.751 -27.025,15.243 -40.545,22.851c0.284,1.957 0.569,3.915 0.853,5.872c8.993,1.737 17.969,3.563 26.983,5.184c8.665,1.557 17.367,2.902 25.803,4.298c3.005,18.872 -4.412,23.154 -21.334,17.697Z" style="fill:#f7fbfe;fill-rule:nonzero;"/><path d="M624.819,362.752c-6.741,-12.844 -12.836,-24.285 -20.08,-37.883c21.419,-11.143 40.122,-23.556 60.674,-30.468c10.756,-3.616 27.11,-1.27 36.804,4.889c19.456,12.36 30.855,33.357 29.749,56.351c-0.575,11.972 -8.83,26.895 -18.394,34.378c-16.591,12.982 -36.892,21.222 -57.003,32.196c-10.929,-20.399 -21.017,-39.229 -31.75,-59.463m27.816,-45.671c-7.045,3.98 -14.091,7.96 -22.811,12.887c12.805,23.84 24.632,45.86 36.306,67.594c45.821,-20.126 54.104,-32.786 41.686,-60.315c-12.003,-26.607 -26.796,-32.693 -55.181,-20.166Z" style="fill:#f5fafd;fill-rule:nonzero;"/><path d="M1152.45,1876.97c-13.928,12.105 -26.774,23.139 -44.255,38.154l61.599,0l-0,20.856c-26.737,1.413 -53.263,2.814 -80.341,4.245c-5.826,-21.112 -0.986,-37.667 14.929,-51.012c9.535,-7.995 21.057,-14.621 27.913,-24.485c5.225,-7.518 4.518,-19.158 6.451,-28.965c-9.596,-0.473 -19.406,-2.329 -28.702,-0.88c-5.263,0.82 -9.68,7.066 -14.383,10.793c-16.391,-12.464 -16.692,-18.003 -0.63,-28.149c18.32,-11.573 39.317,-14.92 56.503,-1.942c8.937,6.748 13.271,22.909 14.508,35.333c0.78,7.835 -8.012,16.622 -13.592,26.052Z" style="fill:#f8fbfe;fill-rule:nonzero;"/><path d="M1877.64,869.419c9.835,-1.596 17.911,-2.736 28.045,-4.166c3.803,21.062 8.771,40.445 10.507,60.114c2.56,28.996 -22.051,42.048 -50.354,30.805c-17.722,7.179 -33.143,13.427 -49.667,20.121c-5.005,-12.178 -7.728,-19.966 6.207,-24.404c27.146,-8.647 27.357,-9.616 21.394,-37.365c-1.152,-5.359 -2.35,-10.708 -3.792,-17.268c-12.486,1.898 -24.508,3.725 -37.932,5.766c-1.453,-5.814 -2.862,-11.448 -4.757,-19.029c27.136,-4.875 52.863,-9.497 80.349,-14.574m7.673,18.368c-8.643,1.862 -17.286,3.725 -28.488,6.138c2.232,12.192 2.765,24.071 6.972,34.462c2.254,5.568 11.242,12.356 16.453,11.791c6.621,-0.717 17.887,-8.59 17.682,-12.93c-0.627,-13.296 -5.783,-26.378 -12.619,-39.461Z" style="fill:#f5fafd;fill-rule:nonzero;"/><path d="M1781.78,838.339c-19.659,-45.526 -7.412,-72.76 36.84,-85.133c32.006,-8.949 55.608,3.699 66.284,35.518c10.248,30.545 -0.721,54.323 -30.958,67.107c-31.411,13.28 -52.424,8.52 -72.166,-17.492m44.899,3.877c19.849,-2.939 40.241,-8.103 43.213,-30.948c1.432,-11.004 -4.696,-29.941 -12.738,-33.621c-12.49,-5.714 -30.251,-4.276 -44.46,-0.674c-15.216,3.857 -26.606,16.077 -23.682,34.086c3.027,18.651 12.318,32.325 37.667,31.157Z" style="fill:#f3f9fd;fill-rule:nonzero;"/><path d="M1402.88,385.068c-8.988,-1.092 -16.696,-1.595 -23.798,-3.937c-25.492,-8.405 -40.165,-27.161 -39.707,-49.644c0.55,-27.022 20.712,-55.47 44.017,-62.106c19.801,-5.638 50.897,7.262 63.262,26.243c19.708,30.253 -3.714,79.736 -43.774,89.444m-5.688,-17.664c21.364,-5.763 35.435,-23.756 36.394,-46.533c1.033,-24.551 -24.302,-42.264 -47.088,-32.922c-14.367,5.891 -30.024,33.407 -27.393,50.182c3.023,19.28 16.075,27.877 38.087,29.273Z" style="fill:#f5fafd;fill-rule:nonzero;"/><path d="M1043.23,291.877c17.875,0.076 33.854,-0.359 49.776,0.398c3.518,0.167 6.835,4.553 10.245,6.997c-3.549,2.985 -7.023,8.446 -10.66,8.557c-24.906,0.76 -49.846,0.399 -78.556,0.399c-0,-34.481 -0.3,-68.109 0.504,-101.711c0.073,-3.064 7.113,-8.359 11.095,-8.533c21.473,-0.935 43.014,-0.989 64.499,-0.323c4.288,0.133 8.437,4.714 12.651,7.245c-4.413,2.802 -8.71,7.782 -13.258,8.023c-17.764,0.942 -35.607,0.384 -54.438,0.384l-0,32.162c14.746,0 29.102,-0.554 43.364,0.351c4.082,0.258 7.895,4.741 11.832,7.286c-3.924,2.838 -7.688,7.812 -11.802,8.122c-13.713,1.032 -27.552,0.391 -47.364,0.391c4.118,12.186 7.156,21.177 12.112,30.252Z" style="fill:#f7fbfe;fill-rule:nonzero;"/><path d="M1161.71,216.85c-8.071,3.865 -14.439,7.778 -20.807,11.692c4.525,6.091 7.89,13.907 13.826,17.9c10.829,7.285 23.727,11.446 34.776,18.464c18.246,11.588 18.162,34.816 0.63,46.641c-16.553,11.165 -59.724,5.554 -71.712,-10.108c-3.873,-5.058 -5.114,-12.132 -7.558,-18.284c1.355,-1.722 2.711,-3.445 4.067,-5.168c5.976,3.363 12.132,6.449 17.878,10.168c5.542,3.588 10.839,11.324 15.931,11.066c11.136,-0.562 22.074,-5.038 33.093,-7.915c-6.856,-7.301 -12.871,-15.742 -20.795,-21.6c-8.799,-6.505 -19.987,-9.731 -28.976,-16.036c-15.296,-10.727 -16.459,-31.127 -3.514,-43.154c22.422,-20.832 71.199,-6.095 80.224,30.336c-9.95,-4.877 -16.402,-7.819 -22.643,-11.154c-7.664,-4.095 -15.153,-8.518 -24.42,-12.848Z" style="fill:#f3f9fd;fill-rule:nonzero;"/><path d="M200.848,1202.87c-1.468,-11.379 -2.691,-20.954 -4.005,-30.516c-3.76,-27.356 6.824,-42.914 31.582,-46.357c22.183,-3.084 37.344,9.957 41.492,35.975c1.708,10.72 2.959,21.513 4.616,33.741c12.627,-1.27 23.348,-2.349 36.002,-3.621c0.709,6.387 1.337,12.042 2.138,19.26c-36.269,4.889 -70.869,9.553 -106.66,14.378c-1.884,-7.992 -3.422,-14.521 -5.165,-22.86m55.462,-19.727c-0.74,-5.467 -1.433,-10.94 -2.229,-16.399c-1.973,-13.529 -8.963,-22.111 -23.477,-20.236c-14.524,1.877 -19.268,12.085 -17.59,25.564c1.263,10.14 3.335,20.18 5.263,31.539c11.087,-1.344 21.482,-1.52 31.104,-4.339c3.524,-1.033 5.212,-8.329 6.929,-16.129Z" style="fill:#f4fafd;fill-rule:nonzero;"/><path d="M993.804,231.124c1.608,10.683 2.476,19.64 3.95,28.496c5.772,34.674 -6.259,51.619 -41.602,58.227c-33.165,6.201 -51.779,-5.934 -57.89,-39.204c-3.837,-20.889 -5.93,-42.099 -8.777,-62.961c14.423,-7.318 20.401,-2.14 21.962,11.195c1.848,15.783 3.474,31.61 5.945,47.3c3.378,21.445 14.645,30.744 33.225,28.421c22.299,-2.789 30.901,-13.876 27.967,-37.138c-2.573,-20.408 -5.807,-40.733 -8.704,-60.781c14.432,-7.346 21.534,-5.047 21.751,10.271c0.068,4.807 1.113,9.601 2.173,16.174Z" style="fill:#f4f9fd;fill-rule:nonzero;"/><path d="M1895.5,1082.91c-11.695,0.241 -21.385,0.549 -31.077,0.601c-33.571,0.181 -50.017,-16.556 -50.579,-51.35c-0.502,-31.061 16.227,-47.945 48.328,-49.298c19.915,-0.84 39.807,-2.233 61.486,-3.48c0.402,7.352 0.71,12.999 1.074,19.648c-22.217,1.451 -42.812,2.757 -63.401,4.151c-22.306,1.511 -31.049,10.146 -30.92,30.391c0.135,21.026 9.712,29.565 33.449,29.644c20.661,0.068 41.322,0.014 62.643,0.014c5.207,12.669 2.79,19.753 -12.394,19.179c-5.521,-0.209 -11.07,0.279 -18.609,0.5Z" style="fill:#f5fafd;fill-rule:nonzero;"/><path d="M281.751,1039.26c-11.173,-4.418 -21.246,-9.091 -31.663,-10.057c-17.179,-1.594 -34.581,-0.766 -51.887,-1.055c-1.283,-0.022 -2.552,-0.824 -5.308,-1.773l0,-17.708c24.259,-0 47.738,-1.081 71.073,0.29c25.684,1.508 40.369,21.759 39.613,51.463c-0.789,31.009 -14.908,47.735 -42.179,48.51c-22.696,0.646 -45.426,0.133 -67.936,0.133c-5.576,-15.551 -1.102,-21.095 13.224,-20.402c14.515,0.702 29.08,0.567 43.622,0.481c33.317,-0.196 43.816,-16 31.441,-49.882Z" style="fill:#f5fafd;fill-rule:nonzero;"/><path d="M351.238,737.368c19.038,-13.124 27.599,-28.302 18.647,-50.384c-2.35,-5.798 -0.354,-13.358 -0.354,-22.387c23.881,14.847 27.521,34.596 14.581,61.369c-13.933,28.826 -38.172,39.752 -66.513,29.98c-33.787,-11.649 -49.23,-34.552 -42.816,-63.498c7.214,-32.552 29.756,-50.843 64.675,-47.532c-6.87,7.36 -10.715,14.734 -16.621,17.23c-22.846,9.657 -33.782,23.131 -31.601,42.159c1.86,16.233 18.557,30.818 39.859,33.949c6.019,0.885 12.326,-0.192 20.143,-0.886Z" style="fill:#f4f9fd;fill-rule:nonzero;"/><path d="M421.595,476.897c16.778,13.964 32.175,28.833 47.914,43.329c16.865,15.535 30.105,15.207 44.894,-0.557c14.242,-15.181 13.929,-26.695 -1.813,-43.127c-11.509,-12.013 -23.685,-23.388 -35.187,-35.407c-9.711,-10.147 -9.471,-10.376 3.941,-22.25c17.642,17.266 36.556,33.573 52.746,52.243c16.016,18.467 10.758,41.72 -11.093,62.365c-21.189,20.017 -42.202,22.621 -60.966,5.995c-15.024,-13.313 -28.336,-28.547 -43.155,-42.111c-8.833,-8.085 -6.757,-13.746 2.719,-20.48Z" style="fill:#f7fbfe;fill-rule:nonzero;"/><path d="M1785.52,718.71c-5.512,-10.334 -10.266,-19.341 -15.684,-29.605c-14.058,6.509 -26.454,12.248 -40.621,18.808c-2.882,-4.645 -5.89,-9.491 -10.303,-16.602c33.304,-16.691 65.105,-32.629 98.993,-49.613c11.896,23.733 23.562,46.2 34.215,69.137c1.574,3.392 -1.646,9.01 -2.648,13.598c-4.038,-2.668 -9.704,-4.415 -11.827,-8.166c-8.469,-14.968 -15.836,-30.56 -24.78,-48.232c-9.255,4.232 -17.589,8.042 -25.743,11.77c16.507,51.745 16.507,51.745 7.832,56.176c-2.878,-5.289 -5.776,-10.616 -9.434,-17.271Z" style="fill:#f2f8fd;fill-rule:nonzero;"/><path d="M374.699,596.104c-10.364,-8.163 -19.53,-15.454 -30.515,-24.193c16.234,-21.379 31.678,-42.422 48.167,-62.611c2.257,-2.764 9.722,-1.273 20.644,-2.307c-17.07,23.017 -29.754,40.121 -43.747,58.989c7.905,6.194 15.245,11.945 23.614,18.502c11.524,-14.518 22.167,-27.927 32.74,-41.247c13.667,7.644 13.656,7.636 2.184,22.9c-6.616,8.802 -13.189,17.635 -20.927,27.986c11.718,9.492 22.821,18.486 35.303,28.598c-3.446,5.202 -6.622,9.998 -10.678,16.123c-19.318,-14.551 -37.453,-28.21 -56.785,-42.74Z" style="fill:#f4f9fd;fill-rule:nonzero;"/><path d="M1271.5,224.48c15.633,3.885 29.568,7.428 43.819,11.05c0.358,16.519 -8.423,15.508 -18.746,11.732c-13.254,-4.848 -19.84,-1.322 -22.748,13.621c-4.589,23.586 -11.677,46.687 -17.921,70.821c-14.472,1.46 -21.106,-1.723 -16.441,-17.978c6.997,-24.375 12.514,-49.175 18.957,-74.983c-11.327,-3.657 -21.593,-6.971 -31.834,-10.277c4.462,-15.121 4.462,-15.121 44.914,-3.986Z" style="fill:#f4f9fd;fill-rule:nonzero;"/><path d="M316.005,893.472c-34.591,-9.374 -67.665,-18.856 -102.075,-28.721c1.922,-6.833 3.495,-12.425 5.418,-19.266c29.766,8.5 58.18,16.614 89.34,25.512c5.145,-17.072 9.588,-34.127 15.675,-50.574c1.769,-4.78 8.24,-7.818 12.556,-11.655c0.824,5.344 3.509,11.221 2.159,15.943c-6.595,23.053 -14.266,45.799 -23.073,68.761Z" style="fill:#f3f9fd;fill-rule:nonzero;"/><path d="M333.85,779.165c12.827,4.293 23.494,8.423 11.384,25.97c-31.034,-11.949 -62.988,-23.814 -94.352,-37.073c-2.824,-1.194 -1.842,-11.393 -3.169,-21.563c31.969,12.181 58.258,22.197 86.137,32.666Z" style="fill:#f4f9fd;fill-rule:nonzero;"/><path d="M1341.27,270.162c-8.079,23.814 -16.33,45.832 -23.127,68.29c-4.217,13.933 -10.823,14.017 -22.989,4.989c11.244,-32.996 22.701,-66.618 34.115,-100.116c19.021,4.774 19.021,4.774 12.001,26.837Z" style="fill:#f4f9fd;fill-rule:nonzero;"/><path d="M1569.6,411.169c7.785,-9.796 14.624,-18.432 22.15,-27.937c11.875,4.608 18.233,9.73 8.133,22.098c-19.634,24.045 -38.915,48.378 -59.395,73.902c-5.329,-3.561 -10.112,-6.756 -16.352,-10.925c15.447,-19.424 29.982,-37.702 45.464,-57.138Z" style="fill:#f4f9fd;fill-rule:nonzero;"/><path d="M1210.97,1508.1c1.295,58.305 1.36,116.772 1.585,177.165c-1.218,2.501 -2.595,3.077 -5.048,3.932c-1.871,-36.231 -2.835,-72.739 -3.397,-109.254c-0.35,-22.8 -0.093,-45.61 0.308,-70.387c2.052,-1.746 3.687,-1.52 6.552,-1.456Z" style="fill:#143b56;fill-rule:nonzero;"/><path d="M811.41,1859.33c-7.342,-1.993 -13.065,-3.574 -20.004,-5.491c2.233,-7.439 3.919,-13.057 6.036,-20.11c17.37,4.131 33.688,8.011 51.075,12.146c-1.783,7.698 -3.102,13.39 -4.748,20.495c-11.007,-2.374 -20.874,-4.502 -32.359,-7.04Z" style="fill:#f2f8fd;fill-rule:nonzero;"/><path d="M1290.34,1859.76c-5.588,-11.853 0.881,-15.08 9.132,-16.881c12.695,-2.769 25.443,-5.297 40.351,-8.378c1.005,7.418 1.855,13.689 3.283,24.222c-18.876,0.928 -35.542,1.746 -52.766,1.037Z" style="fill:#f2f8fd;fill-rule:nonzero;"/><path d="M733.941,1658.62c-0.594,-42.816 -0.594,-84.555 -0.594,-126.295c2.492,-0.033 4.984,-0.066 7.476,-0.099c-0,42.46 -0,84.919 -1.087,128.679c-2.459,0.464 -3.83,-0.372 -5.795,-2.285Z" style="fill:#0f2e42;fill-rule:nonzero;"/><path d="M1391.97,1653.56c-6.882,-40.096 -6.186,-80.035 3.921,-119.795c-0,38.312 -0,76.625 -0.002,116.754c-0.842,2.219 -1.682,2.621 -3.919,3.041Z" style="fill:#010305;fill-rule:nonzero;"/><path d="M1850.43,1312.84c-7.959,1.571 -15.465,3.112 -22.014,1.262c-1.931,-0.545 -3.437,-12.114 -0.979,-16.002c2.441,-3.861 13.645,-7.351 14.865,-5.887c4.386,5.265 6.177,12.692 8.128,20.627Z" style="fill:#f2f8fd;fill-rule:nonzero;"/><path d="M274.093,1318.33c-3.065,-7.63 -6.045,-14.648 -5.653,-21.471c0.111,-1.918 11.128,-5.807 15.314,-4.155c4.113,1.623 9.433,11.456 8.018,13.609c-3.583,5.454 -10.647,8.621 -17.679,12.017Z" style="fill:#f5fafd;fill-rule:nonzero;"/><path d="M1362.28,1441.72c-9.253,11.486 -14.307,30.773 -32.99,24.341c8.077,-13.879 16.427,-28.226 25.351,-44.008c2.53,5.267 4.487,11.968 7.639,19.667Z" style="fill:#276d9b;fill-rule:nonzero;"/><path d="M778.075,1383.76c-0.225,6.961 -1.733,14.284 -4.612,22.35c-3.246,0.425 -5.615,-0.764 -6.896,-0.037c-2.97,1.684 -5.413,4.296 -8.07,6.531c-0.155,-19.585 -0.311,-39.171 -0.616,-60.478c4.237,7.258 8.473,16.318 13.107,25.169c1.351,2.581 3.838,4.567 7.087,6.465Z" style="fill:#2a74a5;fill-rule:nonzero;"/><path d="M925.556,1687.4c-0.997,-46.335 -0.997,-92.41 -0.997,-138.484c1.519,-0.006 3.039,-0.011 4.558,-0.017c0,45.023 0,90.045 -0.259,137.035c-0.259,1.967 -2.305,1.727 -3.302,1.466Z" style="fill:#205e88;fill-rule:nonzero;"/><path d="M657.246,1346.17c-1.311,18.04 -4.169,36.164 -7.196,56.171c-12.563,-18.122 -10.607,-37.601 7.196,-56.171Z" style="fill:#2a74a5;fill-rule:nonzero;"/><path d="M733.242,1326.88c-19.932,-3.326 -40.113,-5.96 -60.744,6.37c9.637,-5.145 20.425,-13.037 32.237,-15.119c8.667,-1.528 18.677,4.562 28.507,8.749Z" style="fill:#2a74a5;fill-rule:nonzero;"/><path d="M663.678,1436.18c-1.135,0.58 -2.288,1.121 -4.407,1.489c-2.402,-7.44 -3.858,-14.747 -5.159,-23.665c3.805,3.842 7.457,9.295 11.413,16.388c-0.412,3.023 -1.13,4.405 -1.847,5.788Z" style="fill:#2a74a5;fill-rule:nonzero;"/><path d="M1320.76,1355.89c-9.659,0.464 -19.817,-0.553 -31.704,-1.887c9.249,-0.076 20.227,0.164 31.704,1.887Z" style="fill:#276d9b;fill-rule:nonzero;"/><path d="M840.552,1352.59c-8.897,2.387 -19.053,3.754 -30.888,4.995c8.757,-2.089 19.193,-4.051 30.888,-4.995Z" style="fill:#2a74a5;fill-rule:nonzero;"/><path d="M1356.5,1407.36c-2.827,-6.083 -4.818,-13.358 -6.778,-22.25c2.559,5.941 5.087,13.499 6.778,22.25Z" style="fill:#276d9b;fill-rule:nonzero;"/><path d="M1255.19,1459.54c3.379,0.412 6.567,2.054 9.755,3.696c-2.92,0.617 -5.84,1.235 -9.607,0.912c-0.677,-1.753 -0.508,-2.565 -0.148,-4.608Z" style="fill:#010203;fill-rule:nonzero;"/><path d="M1336.83,1365.99c-3.702,-0.637 -7.466,-2.808 -11.668,-6.227c3.577,0.733 7.592,2.713 11.668,6.227Z" style="fill:#276d9b;fill-rule:nonzero;"/><path d="M803.051,1358.45c-1.707,2.901 -4.959,5.652 -9.507,8.622c1.79,-2.777 4.876,-5.774 9.507,-8.622Z" style="fill:#2a74a5;fill-rule:nonzero;"/><path d="M1192.73,1454.01c-2.316,-0.619 -3.835,-1.486 -5.353,-2.352c1.623,-0.677 3.246,-1.355 6.165,-2.104c0.859,1.356 0.422,2.783 -0.812,4.456Z" style="fill:#010304;fill-rule:nonzero;"/><path d="M649.802,1405.54c1.627,0.601 3.157,2.464 4.585,5.615c-1.628,-0.592 -3.155,-2.473 -4.585,-5.615Z" style="fill:#2a74a5;fill-rule:nonzero;"/><path d="M1349.89,1382.24c-1.658,-0.436 -3.195,-2.177 -4.885,-5.128c1.567,0.467 3.285,2.145 4.885,5.128Z" style="fill:#276d9b;fill-rule:nonzero;"/><path d="M786.981,1371.65c0.479,1.011 -0.159,2.35 -1.886,4.052c-0.47,-1 0.149,-2.362 1.885,-4.052Z" style="fill:#2a74a5;fill-rule:nonzero;"/><path d="M1344.65,1374.77c-0.985,0.325 -2.153,-0.454 -3.565,-2.303c0.965,-0.314 2.172,0.442 3.565,2.303Z" style="fill:#276d9b;fill-rule:nonzero;"/><path d="M757.704,1349.45c-1.029,0.291 -2.222,-0.512 -3.535,-2.445c1.044,-0.304 2.208,0.524 3.535,2.445Z" style="fill:#2a74a5;fill-rule:nonzero;"/><path d="M791.196,1367.45c0.384,1 -0.326,2.235 -2.116,3.721c-0.379,-0.995 0.322,-2.241 2.116,-3.721Z" style="fill:#2a74a5;fill-rule:nonzero;"/><path d="M773.776,1416.58c3.383,26.368 19.889,43.035 48.603,55.54c-18.921,-1.812 -30.695,-2.94 -43.895,-4.675c-1.427,-0.606 -1.418,-1.097 -1.418,-1.097c-7.181,-8.798 -14.362,-17.596 -20.678,-27.773c6.225,0.417 11.584,2.214 15.452,3.511c0.663,-8.744 1.3,-17.125 1.936,-25.506Z" style="fill:#2a74a5;fill-rule:nonzero;"/><path d="M773.896,1415.22c-0.756,9.739 -1.393,18.12 -2.056,26.864c-3.868,-1.297 -9.227,-3.094 -16.041,-4.801c-1.454,0.089 -1.579,0.175 -1.565,-1.601c-0.272,-6.36 -0.557,-10.944 -0.842,-15.529c0,0 0.75,0.604 1.573,-0.053c1.719,-2.916 2.616,-5.174 3.512,-7.433c-0,0 -0.091,-0.059 -0.035,-0.06c2.712,-2.236 5.155,-4.848 8.125,-6.532c1.281,-0.727 3.65,0.462 6.346,1.563c0.916,2.597 1.01,4.41 0.983,7.582Z" style="fill:#449eda;fill-rule:nonzero;"/><path d="M1103.54,1234.2c-28.09,-6.112 -55.781,-6.717 -84.773,3.721c-1.773,-0.074 -2.028,-0.323 -1.075,-1.469c29.16,-14.344 57.647,-14.677 86.397,-3.015c-0,0 -0.396,0.489 -0.549,0.763Z" style="fill:#0b0f11;fill-rule:nonzero;"/><path d="M1078,1410.13c-13.018,1.004 -24.827,1.004 -36.636,1.004c0.134,-2.661 0.268,-5.321 0.401,-7.982c12.482,1.992 24.963,3.983 36.235,6.978Z" style="fill:#010304;fill-rule:nonzero;"/><path d="M751.443,1495.43c-1.329,8.581 -3.789,17.743 -6.25,26.905c-2.137,-0.97 -4.273,-1.94 -6.41,-2.909c3.843,-7.805 7.685,-15.61 12.66,-23.996Z" style="fill:#000101;fill-rule:nonzero;"/><path d="M1137.66,1375.1c-1.47,7.241 -2.94,14.482 -4.338,21.371c-14.22,-9.975 -14.22,-9.975 2.687,-21.38c1.481,-0.116 1.651,0.009 1.651,0.009Z" style="fill:#010304;fill-rule:nonzero;"/><path d="M752.06,1420.65c1.617,4.093 1.902,8.677 2.199,14.982c-4.205,0.331 -8.421,-1.059 -20.596,-5.071c8.423,-4.649 12.744,-7.034 18.397,-9.911Z" style="fill:#2a74a5;fill-rule:nonzero;"/><path d="M1154.27,1327.18c1.972,3.957 2.564,7.898 3.155,11.84c-1.945,0.091 -3.891,0.182 -5.836,0.274c0.433,-4.043 0.866,-8.086 2.681,-12.114Z" style="fill:#010304;fill-rule:nonzero;"/><path d="M1169.04,1418.21c-3.316,0.57 -7.158,-0.035 -11.001,-0.64c0.842,-2.21 1.684,-4.419 2.526,-6.629c2.65,2.031 5.299,4.062 8.475,7.269Z" style="fill:#010304;fill-rule:nonzero;"/><path d="M771.002,1475.11c-2.166,4.014 -4.332,8.029 -6.498,12.043c-1.732,-1.245 -3.463,-2.49 -5.194,-3.736c2.875,-2.744 5.75,-5.488 10.058,-8.347c1.434,-0.114 1.634,0.04 1.634,0.04Z" style="fill:#000101;fill-rule:nonzero;"/><path d="M665.26,1436.58c-0.865,-1.783 -0.147,-3.165 0.991,-5.112c5.12,1.001 9.819,2.567 15.8,5.083c1.282,0.951 1.335,0.992 1.335,0.992c-5.514,-0.188 -11.029,-0.375 -18.126,-0.963Z" style="fill:#010203;fill-rule:nonzero;"/><path d="M1137.41,1374.91c1.966,-4.967 4.009,-9.863 6.051,-14.758c1.528,0.699 3.056,1.398 4.584,2.097c-2.779,3.786 -5.557,7.573 -9.361,12.109c-1.026,0.749 -1.196,0.624 -1.274,0.552Z" style="fill:#010304;fill-rule:nonzero;"/><path d="M1151.95,1348.35c-0.489,1.891 -1.689,3.039 -2.89,4.188c-0.475,-0.497 -0.95,-0.995 -1.425,-1.492c1.2,-1.146 2.401,-2.293 4.315,-2.696Z" style="fill:#010304;fill-rule:nonzero;"/><path d="M926.944,1527.53c-0.484,1.878 -1.666,3.028 -2.924,4.09c-0.032,0.028 -0.888,-0.921 -1.359,-1.414c1.192,-1.138 2.384,-2.276 4.283,-2.676Z" style="fill:#000001;fill-rule:nonzero;"/><path d="M1144.44,1399.4c1.269,2.666 1.628,4.862 1.986,7.058c-1.06,-0.263 -3.006,-0.45 -3.036,-0.801c-0.19,-2.222 0.044,-4.48 1.05,-6.257Z" style="fill:#010304;fill-rule:nonzero;"/><path d="M1180.79,1441.5c1.675,-1.021 3.338,-1.015 4.992,-0.888c0.045,0.003 -0.007,1.293 -0.013,1.983c-1.664,-0.016 -3.328,-0.033 -4.979,-1.095Z" style="fill:#010304;fill-rule:nonzero;"/><path d="M717.249,1441.43c-2.341,0.266 -4.682,0.532 -7.022,0.798c1.551,-1.481 3.102,-2.962 5.691,-3.543c1.037,0.9 1.331,2.745 1.331,2.745Z" style="fill:#010203;fill-rule:nonzero;"/><path d="M718.771,1441.44c-1.522,-0.011 -1.816,-1.856 -1.669,-2.778c3.802,-0.922 7.457,-0.922 11.112,-0.922c0.052,0.876 0.104,1.753 0.156,2.63c-2.692,0.36 -5.385,0.721 -9.599,1.07Z" style="fill:#2a74a5;fill-rule:nonzero;"/><path d="M1148.91,1285.67c0.552,-1.758 1.752,-2.883 2.953,-4.009c0.376,0.472 1.133,1.299 1.072,1.364c-1.066,1.148 -2.233,2.203 -4.025,2.645Z" style="fill:#010304;fill-rule:nonzero;"/><path d="M1155.15,1295.88c0.712,-0.472 1.431,-0.241 2.15,-0.01c-0.715,0.237 -1.429,0.475 -2.15,0.01Z" style="fill:#010304;fill-rule:nonzero;"/><path d="M1017.11,1237.99c-1.808,1.498 -3.731,2.861 -7.061,4.112c-1.405,-0.112 -1.739,-0.454 -0.804,-1.171c3.121,-1.586 5.308,-2.456 7.494,-3.326c0,0 0.255,0.249 0.371,0.385Z" style="fill:#0b0f11;fill-rule:nonzero;"/><path d="M855.826,1465.51c0.672,0.531 0.769,1.45 0.867,2.369c-0.48,-0.66 -0.96,-1.321 -0.867,-2.369Z" style="fill:#010203;fill-rule:nonzero;"/><path d="M1177.51,1430.33c-0.676,-0.534 -0.775,-1.457 -0.874,-2.381c0.484,0.664 0.967,1.327 0.874,2.381Z" style="fill:#010304;fill-rule:nonzero;"/><path d="M775.702,1466.86c1.364,-0.507 1.355,-0.016 1.414,0.185c-1.121,2.14 -2.301,4.078 -4.797,7.044c-1.317,1.028 -1.517,0.874 -1.61,0.784c1.148,-2.561 2.388,-5.033 4.993,-8.013Z" style="fill:#000101;fill-rule:nonzero;"/><path d="M757.377,1413.2c0.204,1.732 -0.693,3.99 -2.814,6.641c-0.245,-1.776 0.735,-3.945 2.814,-6.641Z" style="fill:#2a74a5;fill-rule:nonzero;"/><path d="M1008.81,1242.15c-0.218,1.542 -0.998,2.631 -3.228,3.745c-1.054,0.307 -1.325,0.023 -0.769,-0.795c1.617,-1.61 2.597,-2.491 3.496,-3.462c0,0 0.334,0.342 0.501,0.512Z" style="fill:#0b0f11;fill-rule:nonzero;"/><path d="M1004.67,1246.35c-0.237,1.49 -0.995,2.573 -3.05,3.799c-0.915,0.411 -1.201,0.131 -0.89,-0.807c1.373,-1.779 2.447,-2.605 3.532,-3.416c0,0 0.271,0.284 0.408,0.424Z" style="fill:#0b0f11;fill-rule:nonzero;"/><path d="M683.313,1437.47c0.392,-0.157 0.805,-0.287 0.646,-0.175c-0.573,0.242 -0.626,0.201 -0.646,0.175Z" style="fill:#010203;fill-rule:nonzero;"/><path d="M736.351,1434.67c-0.029,1.128 -0.953,1.387 -1.877,1.646c0.327,-0.839 0.654,-1.677 1.877,-1.646Z" style="fill:#2a74a5;fill-rule:nonzero;"/><path d="M1368.79,1480.33c-3.464,1.342 -7.564,1.556 -11.665,1.769c0.258,-2.176 0.516,-4.353 0.775,-6.53c3.417,1.211 6.835,2.422 10.89,4.761Z" style="fill:#010305;fill-rule:nonzero;"/><path d="M1455.59,1431.26c-1.702,2.626 -4.45,3.611 -7.198,4.597c0.36,-2.068 0.72,-4.136 1.671,-6.248c1.888,-0.025 3.184,-0.007 5.527,1.651Z" style="fill:#010305;fill-rule:nonzero;"/><path d="M1380.67,1497.35c-0.513,1.619 -1.848,3.297 -3.195,3.307c-0.968,0.007 -1.953,-2.214 -2.93,-3.441c1.766,-0.174 3.532,-0.347 6.125,0.134Z" style="fill:#010305;fill-rule:nonzero;"/><path d="M1320.12,1469.29c-2.13,1.786 -3.782,2.388 -5.434,2.991c-0.301,-1.137 -0.602,-2.274 -0.903,-3.411c2.272,-0.255 4.544,-0.509 6.337,0.42Z" style="fill:#276d9b;fill-rule:nonzero;"/><path d="M1384.44,1511.03c-1.073,-0.061 -1.66,-0.636 -2.246,-1.211c0.911,0.232 1.822,0.465 2.246,1.211Z" style="fill:#010305;fill-rule:nonzero;"/><path d="M1388.6,1523.53c-1.064,-0.061 -1.644,-0.63 -2.225,-1.2c0.903,0.231 1.805,0.462 2.225,1.2Z" style="fill:#010305;fill-rule:nonzero;"/><path d="M1401.65,1432.15c0.686,0.54 0.788,1.477 0.889,2.415c-0.491,-0.673 -0.983,-1.346 -0.889,-2.415Z" style="fill:#010305;fill-rule:nonzero;"/><path d="M1410.55,1439.8c-0.238,0.143 0.238,-0.143 -0,0Z" style="fill:#010305;fill-rule:nonzero;"/><path d="M1272.78,1464.37c0.235,-0.141 -0.235,0.141 -0,-0Z" style="fill:#010203;fill-rule:nonzero;"/><path d="M1004.82,1245.11c-1.641,1.629 -2.715,2.455 -4.281,4.178c0.289,-31.155 -1.812,-63.586 2.467,-95.151c9.342,-68.908 41.481,-127.242 91.511,-175.382c43.505,-41.862 88.202,-82.495 131.312,-124.753c30.019,-29.428 54.404,-62.824 61.884,-105.896c14.69,-84.582 -25.812,-167.939 -103.798,-214.375c-102.294,-60.91 -278.88,-43.421 -333.711,126.47c-7.415,22.976 -12.763,46.618 -19.486,71.495c-41.748,-4.322 -84.141,-8.71 -126.564,-13.101c15.089,-157.558 107.689,-280.279 269.958,-309.288c99.14,-17.724 196.736,-11.582 287.37,37.23c131.441,70.791 188.414,212.997 142.552,351.816c-14.439,43.704 -40.201,80.761 -72.194,112.881c-45.041,45.218 -91.321,89.257 -138.221,132.555c-48.243,44.536 -70.789,99.709 -73.515,164.227c-0.352,8.309 -1.058,16.689 -2.814,24.773c-0.309,1.422 -6.65,1.533 -11.7,1.453c-30.245,-12.46 -58.732,-12.127 -87.892,2.217c-3.139,2.016 -5.326,2.886 -8.447,4.472c-1.834,1.688 -2.814,2.569 -4.431,4.179Z" style="fill:#fcfcfd;fill-rule:nonzero;"/><path d="M990.635,1896.13c0.25,-16.049 -1.974,-31.378 2.471,-44.437c3.002,-8.819 15.586,-20.156 23.547,-19.899c8.132,0.262 20.38,12.133 22.689,21.032c3.457,13.328 0.716,28.617 -1.099,42.854c-1.595,12.509 -7.832,22.142 -22.771,22.154c-13.801,0.011 -22.321,-6 -24.837,-21.704Z" style="fill:#4da5df;fill-rule:nonzero;"/><path d="M266.213,929.101c7.791,-3.539 16.075,-8.439 21.847,-6.361c4.18,1.504 7.041,12.306 6.905,18.888c-0.223,10.729 -3.373,21.397 -5.62,33.945c-10.093,-1.038 -19.294,-1.985 -30.834,-3.172c2.582,-15.115 4.85,-28.394 7.702,-43.3Z" style="fill:#50a6df;fill-rule:nonzero;"/><path d="M249.089,930.731c-1.768,13.076 -3.682,24.464 -5.89,37.61c-10.622,-1.031 -19.914,-1.934 -35.134,-3.412c7.483,-17.909 13.716,-32.827 19.95,-47.746c6.976,3.953 13.952,7.907 21.074,13.548Z" style="fill:#50a6df;fill-rule:nonzero;"/><path d="M1616.67,449.989c0.419,-1.092 1.06,-1.953 1.702,-2.814c0.188,0.976 0.377,1.953 -0.231,3.216c-0.797,0.285 -1.249,-0.17 -1.471,-0.402Z" style="fill:#48a2de;fill-rule:nonzero;"/><path d="M857.881,314.864c-21.136,16.51 -35.828,17.966 -49.437,6.152c-14.722,-12.779 -23.263,-45.875 -11.815,-58.494c7.761,-8.554 22.461,-16.527 32.935,-15.286c10.32,1.223 23.774,12.651 27.611,22.737c4.895,12.867 1.519,28.882 0.706,44.891Z" style="fill:#4ca4df;fill-rule:nonzero;"/><path d="M654.094,316.414c26.926,-11.86 41.719,-5.774 53.722,20.833c12.418,27.529 4.135,40.189 -41.686,60.315c-11.674,-21.734 -23.501,-43.754 -36.306,-67.594c8.72,-4.927 15.766,-8.907 24.27,-13.554Z" style="fill:#4ca5df;fill-rule:nonzero;"/><path d="M1887.03,887.746c5.115,13.124 10.271,26.206 10.898,39.502c0.205,4.34 -11.061,12.213 -17.682,12.93c-5.211,0.565 -14.199,-6.223 -16.453,-11.791c-4.207,-10.391 -4.74,-22.27 -6.972,-34.462c11.202,-2.413 19.845,-4.276 30.209,-6.179Z" style="fill:#50a6df;fill-rule:nonzero;"/><path d="M1824.94,842.296c-23.606,1.088 -32.897,-12.586 -35.924,-31.237c-2.924,-18.009 8.466,-30.229 23.682,-34.086c14.209,-3.602 31.97,-5.04 44.46,0.674c8.042,3.68 14.17,22.617 12.738,33.621c-2.972,22.845 -23.364,28.009 -44.956,31.028Z" style="fill:#4ba4df;fill-rule:nonzero;"/><path d="M1395.5,367.411c-20.318,-1.403 -33.37,-10 -36.393,-29.28c-2.631,-16.775 13.026,-44.291 27.393,-50.182c22.786,-9.342 48.121,8.371 47.088,32.922c-0.959,22.777 -15.03,40.77 -38.088,46.54Z" style="fill:#4ca4df;fill-rule:nonzero;"/><path d="M256.715,1184.82c-2.122,6.12 -3.81,13.416 -7.334,14.449c-9.622,2.819 -20.017,2.995 -31.104,4.339c-1.928,-11.359 -4,-21.399 -5.263,-31.539c-1.678,-13.479 3.066,-23.687 17.59,-25.564c14.514,-1.875 21.504,6.707 23.477,20.236c0.796,5.459 1.489,10.932 2.634,18.079Z" style="fill:#50a6df;fill-rule:nonzero;"/></svg>