<svg version="1.1" id="Layer_1" xmlns="http://www.w3.org/2000/svg" xmlns:xlink="http://www.w3.org/1999/xlink" x="0px" y="0px"
	 width="100%" viewBox="0 0 623 720" enable-background="new 0 0 623 720" xml:space="preserve">
<path fill="#F0F8FF" opacity="1.000000" stroke="none" 
	d="
M72.264786,720.653809 
	C49.671703,721.000000 27.342611,720.907288 5.015959,721.098816 
	C1.622399,721.127930 0.895230,720.473145 0.901603,717.016724 
	C1.032489,646.033020 1.000000,575.048950 1.000000,504.064972 
	C1.000000,337.935791 1.021185,171.806564 0.879335,5.677494 
	C0.875743,1.471038 1.916302,0.896798 5.820524,0.898984 
	C210.274338,1.013460 414.728210,1.013527 619.182007,0.898614 
	C623.091553,0.896417 624.123657,1.479069 624.120239,5.680051 
	C623.979736,178.807510 624.000000,351.935120 624.000000,525.531372 
	C623.717712,526.084290 623.435486,526.168518 622.782776,526.012451 
	C619.300598,519.522644 614.234314,517.164917 607.327576,517.400085 
	C601.920105,517.584167 601.465576,516.756104 602.196838,511.193207 
	C602.720703,507.207764 601.385925,503.641632 600.250610,499.983063 
	C598.403198,494.030060 599.302856,492.752411 605.357971,492.494659 
	C605.690857,492.480469 606.024353,492.481567 606.357605,492.477386 
	C619.487549,492.312103 618.459045,494.143219 618.460754,479.884796 
	C618.474548,364.399475 618.376404,248.913956 618.589600,133.429016 
	C618.615112,119.609749 615.097107,113.551262 598.600342,113.540535 
	C557.105591,113.513557 515.610901,113.532623 474.116150,113.531105 
	C473.449585,113.531082 472.782990,113.533012 472.116425,113.529274 
	C462.872833,113.477386 462.371216,112.776474 465.442566,104.175858 
	C466.115479,102.291542 466.746674,100.396103 467.213562,98.447723 
	C470.240814,85.815178 465.875793,77.895729 453.520996,73.635338 
	C447.355652,71.509285 441.080719,69.877106 434.536285,69.473946 
	C432.866089,69.371056 431.226959,69.099182 429.646729,68.521156 
	C423.171051,66.152489 421.958679,61.435745 427.080841,56.934574 
	C431.696136,52.878807 432.568695,48.530857 431.050781,42.658810 
	C428.882843,34.272305 427.278534,25.756357 423.847778,17.732639 
	C419.562439,7.710259 415.530273,4.977244 404.665161,5.607966 
	C395.018036,6.167981 386.002228,9.116158 377.757111,14.123940 
	C370.102844,18.772840 367.526825,24.309589 370.200684,33.296902 
	C373.553894,44.567558 373.965698,56.769871 380.671692,67.022232 
	C382.444458,69.732483 381.241028,71.726624 378.382690,72.890892 
	C357.989349,81.197762 341.858276,95.196136 327.284088,111.249916 
	C324.789398,113.997849 321.888428,115.581612 318.102722,115.519676 
	C314.771545,115.465164 311.438110,115.549522 308.105255,115.479340 
	C305.500763,115.424492 303.062500,114.761276 301.302277,112.818703 
	C293.985809,104.744415 284.576904,104.735245 274.927887,105.979202 
	C268.454987,106.813690 262.052216,107.896690 258.101044,114.248322 
	C256.521942,116.786728 253.438873,116.502487 250.772629,116.510780 
	C236.274551,116.555878 221.776367,116.528214 207.278229,116.530388 
	C184.281143,116.533836 161.284073,116.531296 138.286987,116.530807 
	C135.285431,116.530746 132.287216,116.521179 129.349396,117.298042 
	C123.678055,118.797729 120.227142,122.787643 119.647850,128.618362 
	C119.449982,130.610016 119.533051,132.614975 119.532845,134.614334 
	C119.529526,166.110336 119.542465,197.606323 119.523674,229.102325 
	C119.518570,237.657761 118.874931,238.334564 110.311844,239.299500 
	C107.821205,239.580154 105.320816,239.497528 102.821060,239.502441 
	C98.836128,239.510284 96.137421,238.099075 95.415359,233.752609 
	C94.597008,228.826508 95.176598,227.515182 99.988266,225.236115 
	C106.643883,222.083633 110.007263,216.198715 109.253510,208.610611 
	C108.671669,202.753159 107.159973,197.081970 104.175034,191.991226 
	C102.041046,188.351746 101.858002,184.949554 103.394524,181.069199 
	C105.386925,176.037552 106.055893,170.735397 105.054024,165.353256 
	C104.117340,160.321304 102.517052,158.903214 97.343445,158.963577 
	C94.533630,158.996353 92.713043,157.641220 90.785301,155.945114 
	C86.564568,152.231567 84.499657,152.122513 79.628815,155.034470 
	C78.481621,155.720306 77.379974,156.670258 76.038811,156.703049 
	C68.008255,156.899353 63.634762,162.588989 59.274570,168.038773 
	C56.109074,171.995300 52.696156,175.572342 48.393257,178.220001 
	C40.518379,183.065567 37.076237,189.990860 37.764709,199.239151 
	C38.604870,210.524994 42.752045,219.555496 53.692638,224.341125 
	C56.136040,225.409927 58.718719,226.117264 61.204521,227.084915 
	C64.258255,228.273621 66.530350,230.307098 68.475578,232.942917 
	C72.885941,238.918976 72.554070,245.567108 63.249741,247.141449 
	C56.668499,248.255035 50.489559,250.847580 44.540775,253.980682 
	C34.217293,259.417847 29.898123,269.553436 30.884710,283.354034 
	C31.551201,292.677063 33.390686,301.879425 36.140362,310.802826 
	C38.063538,317.044067 36.545696,321.571533 31.860792,325.949158 
	C24.194395,333.112701 16.911791,340.690521 9.536199,348.161774 
	C2.227709,355.565063 2.122866,360.282074 9.491617,367.743683 
	C26.470377,384.936371 43.548950,402.032410 60.775780,418.975494 
	C64.896355,423.028198 66.530922,427.370789 66.638306,433.122559 
	C67.235008,465.083344 68.089531,497.040192 68.807861,528.998047 
	C69.118332,542.811096 69.006874,556.640503 69.583672,570.443787 
	C70.786469,599.227722 71.281425,628.022095 71.673759,656.824646 
	C71.754456,662.749023 72.049248,668.817749 73.955765,674.599976 
	C74.534126,676.354004 74.683685,678.236328 74.437248,680.048828 
	C72.857437,691.667847 73.792534,703.346130 73.518044,714.994690 
	C73.475143,716.815369 73.589935,718.672913 72.264786,720.653809 
z"/>
<path fill="#F0F8FF" opacity="1.000000" stroke="none" 
	d="
M623.584717,571.863159 
	C624.000000,620.132935 623.958862,668.265991 624.084167,716.398560 
	C624.093384,719.952759 623.588440,721.112305 619.607422,721.109070 
	C462.717468,720.980835 305.827362,721.000000 148.468658,721.000000 
	C146.939789,718.139832 146.884186,715.394653 149.329285,713.191589 
	C151.450424,711.280457 151.218369,709.100403 150.360153,706.796875 
	C149.110535,703.442810 147.063828,700.655518 144.269272,698.406616 
	C141.530975,696.202942 138.543198,694.399902 135.475708,692.700684 
	C128.074127,688.600708 125.584526,682.472412 127.789818,674.222290 
	C128.335495,672.180908 129.501389,670.736267 131.555649,670.914795 
	C136.010895,671.301880 137.200714,668.478516 138.175995,665.033081 
	C144.893845,641.300720 151.389374,617.505249 156.960815,593.478577 
	C161.401184,574.329651 165.644730,555.134766 167.930344,535.552612 
	C169.240280,524.329529 167.963013,513.251770 166.877563,502.179077 
	C165.748596,490.662689 165.591125,490.486328 176.908249,490.485962 
	C248.398224,490.483673 319.888214,490.483612 391.378174,490.489410 
	C393.708923,490.489594 396.052551,490.345581 398.362946,490.749451 
	C400.095917,491.052307 401.614410,491.711182 401.739258,493.803833 
	C401.859894,495.827087 400.554718,496.770081 398.889313,497.409973 
	C396.847931,498.194305 394.653076,498.300446 392.560730,498.840149 
	C384.883026,500.820557 378.615326,504.458618 376.651154,512.896606 
	C375.935913,515.969177 374.006134,517.353149 370.951355,517.437073 
	C369.618744,517.473694 368.285675,517.488159 366.953522,517.531433 
	C359.814362,517.763306 355.277588,521.222351 354.875305,528.190002 
	C354.078430,541.992065 354.181396,555.841675 354.847443,569.652893 
	C355.100616,574.902893 359.426086,578.783508 364.951263,580.022217 
	C367.414581,580.574341 369.922089,580.480652 372.419830,580.481384 
	C393.916809,580.487427 415.416016,580.653198 436.909363,580.374939 
	C442.855896,580.297974 447.138245,582.064697 450.427399,586.990662 
	C452.730408,590.439758 455.831757,593.323669 457.819824,597.036133 
	C459.665405,600.482422 462.910706,601.768372 466.525177,602.064636 
	C469.484558,602.307251 471.484039,603.642334 472.926392,606.147522 
	C475.087769,609.901428 477.348663,613.599731 479.313965,617.462402 
	C484.420502,627.498962 485.014008,637.373230 479.049255,647.459351 
	C476.012970,652.593567 473.113800,657.930725 471.369354,663.697144 
	C470.139679,667.761963 469.648590,672.031250 473.065125,675.436157 
	C476.558807,678.917847 480.779053,679.727783 485.524475,678.280518 
	C488.747345,677.297668 491.774872,676.013367 494.477356,673.973877 
	C497.938782,671.361694 501.337158,668.650085 504.484131,665.688660 
	C511.400604,659.179993 518.161316,652.494873 524.638855,645.551208 
	C532.474182,637.152100 532.855286,633.589355 526.821838,623.912720 
	C519.323120,611.886047 510.785156,600.573608 502.309906,589.224121 
	C500.763489,587.153320 498.019989,584.958252 499.277405,582.300354 
	C500.576080,579.555115 504.009796,580.525513 506.571075,580.520935 
	C539.732971,580.461609 572.895264,580.426270 606.056885,580.534607 
	C612.753601,580.556458 618.135681,578.584778 622.101746,572.465454 
	C622.660522,572.010498 622.915039,571.868408 623.584717,571.863159 
z"/>
<path fill="#0A0B0C" opacity="1.000000" stroke="none" 
	d="
M623.253723,571.601746 
	C620.443665,578.939392 617.280579,581.187561 609.992737,581.190491 
	C574.832642,581.204407 539.672546,581.196655 504.512482,581.196655 
	C502.696716,581.196655 500.880951,581.196655 498.714325,581.196655 
	C500.185211,584.913147 502.693237,587.394653 504.708893,590.170959 
	C513.018311,601.616150 521.614319,612.861816 529.033264,624.925110 
	C533.872559,632.793884 533.585693,637.428406 527.376404,644.283264 
	C517.872009,654.775696 508.006104,664.939819 496.924408,673.801453 
	C492.343750,677.464539 487.295563,680.309998 481.076447,680.215027 
	C472.260193,680.080322 467.195251,673.706726 469.406281,665.212219 
	C470.971466,659.198792 473.872467,653.663757 477.171417,648.539185 
	C484.458466,637.219482 483.461670,626.349854 476.796478,615.356445 
	C475.505157,613.226562 474.190521,611.089600 473.147278,608.835266 
	C471.365234,604.984192 469.218231,602.350525 464.236755,602.969360 
	C461.174072,603.349792 458.331360,601.565186 456.984680,598.573364 
	C454.260468,592.520996 449.091919,588.339050 445.456268,583.001770 
	C443.944824,580.782837 441.729675,581.199951 439.601685,581.199585 
	C415.606171,581.195068 391.610657,581.203735 367.615143,581.193359 
	C357.999146,581.189209 353.535980,576.849548 353.473145,567.229248 
	C353.391541,554.732117 353.365723,542.233276 353.482635,529.736633 
	C353.568115,520.598511 358.327484,515.819885 367.439301,516.069031 
	C372.265930,516.201050 375.016785,515.885010 376.421814,509.877808 
	C378.514587,500.930084 386.739319,498.490509 394.903564,497.055634 
	C396.377625,496.796570 397.874176,496.620331 399.367889,496.529114 
	C401.503693,496.398621 401.639771,494.791351 401.654938,493.325531 
	C401.674713,491.411530 400.043365,492.179932 399.047272,492.045227 
	C398.228973,491.934570 397.383942,492.021393 396.550751,492.021393 
	C321.731415,492.021362 246.912003,492.054840 172.092865,491.931000 
	C167.976959,491.924194 166.831100,492.515198 167.563507,496.991516 
	C171.801285,522.891357 168.469650,548.378967 162.804062,573.715149 
	C155.804153,605.018311 147.722641,636.039917 139.035385,666.912231 
	C137.905014,670.929260 136.735382,673.927368 131.778717,671.508423 
	C129.887360,670.585449 129.275192,671.570435 128.719269,673.337891 
	C126.427406,680.624268 129.429153,688.149414 136.286224,691.619019 
	C143.779678,695.410645 150.182388,700.201660 152.511780,708.827881 
	C152.890610,710.230774 153.680725,712.749329 152.423965,712.922607 
	C147.426331,713.611511 149.160400,717.618530 148.106400,720.642700 
	C148.000000,721.000000 147.500000,721.000000 147.250000,721.000000 
	C136.282104,719.879028 125.536743,720.729980 114.402863,720.775696 
	C100.312439,721.000000 86.624878,721.000000 72.468658,721.000000 
	C72.326355,706.032288 74.431763,690.834595 72.533691,676.154480 
	C70.100952,657.339172 70.645508,638.590515 69.987778,619.824829 
	C68.914879,589.213684 68.514030,558.579224 67.799210,527.955261 
	C67.034119,495.177795 66.219727,462.401520 65.472771,429.623657 
	C65.404785,426.640167 64.196350,424.671173 62.019051,422.498779 
	C43.265289,403.787781 24.680031,384.906525 6.166301,365.957092 
	C0.949832,360.617828 1.200208,354.741455 6.620078,349.225769 
	C15.380634,340.310364 24.146774,331.392181 33.185352,322.763062 
	C35.981541,320.093506 36.541779,317.731323 35.594139,314.091370 
	C32.537659,302.351227 29.629463,290.607574 29.709112,278.272095 
	C29.794073,265.113556 35.588905,256.182129 47.512173,250.892395 
	C53.323494,248.314240 59.401531,246.712433 65.529396,245.183609 
	C71.028053,243.811752 71.923744,240.965149 69.055565,236.107315 
	C66.192482,231.258148 62.398144,228.457230 56.839813,226.820831 
	C36.934467,220.960587 34.186333,203.462158 38.142529,187.114273 
	C39.075199,183.260254 42.117287,180.657028 45.483742,178.621338 
	C51.111073,175.218521 55.655014,170.799164 59.603947,165.464386 
	C63.534927,160.153854 67.909821,154.748840 75.906021,155.991196 
	C77.053864,156.169525 77.502235,154.943100 78.232277,154.325058 
	C83.629898,149.755432 87.680031,150.066254 92.320435,155.595581 
	C93.802177,157.361176 94.603691,159.083649 97.714890,157.500229 
	C101.173134,155.740219 104.416000,158.045883 105.850822,162.514526 
	C108.104675,169.533997 106.835182,176.371964 104.148720,182.950562 
	C103.039383,185.667114 103.102493,187.661087 104.696884,190.241211 
	C109.373337,197.808853 111.526680,206.102692 110.064308,215.037186 
	C109.056946,221.191803 105.514679,225.454971 99.382698,226.829636 
	C96.733109,227.423645 95.520035,228.116974 96.117989,230.923355 
	C96.781990,234.039749 96.017143,237.933472 100.648384,238.713501 
	C100.965126,238.766830 101.307983,238.665695 101.638634,238.635712 
	C106.933884,238.155624 113.600426,239.421219 117.108452,236.665741 
	C120.141380,234.283417 117.927780,227.275818 117.940582,222.321213 
	C118.017624,192.488281 117.972893,162.655045 117.981743,132.821915 
	C117.985382,120.564575 122.684662,115.808899 134.755310,115.808228 
	C173.921707,115.806030 213.088165,115.780251 252.254395,115.859398 
	C255.359985,115.865669 257.458862,115.634720 258.392334,111.943832 
	C259.216858,108.683701 262.246674,106.943626 265.511871,106.348999 
	C271.563477,105.246948 277.597626,104.022156 283.795776,103.847130 
	C290.527100,103.657036 296.302307,105.833633 300.802063,110.737656 
	C303.166168,113.314140 305.750641,113.735947 309.041168,114.135582 
	C318.576508,115.293663 325.253448,112.007507 331.761719,104.750725 
	C343.464935,91.701492 357.197144,80.802933 373.455780,73.584427 
	C376.007202,72.451668 378.660248,71.547813 381.871521,70.303642 
	C372.122009,59.366615 372.491241,45.032330 368.593323,32.163837 
	C365.939850,23.403595 369.046448,17.493660 376.996735,12.897103 
	C386.660828,7.309707 397.130280,4.376584 408.316284,3.958205 
	C414.831635,3.714517 419.468170,6.472933 422.588409,12.124590 
	C427.643982,21.281681 429.209320,31.533251 432.215698,41.353748 
	C434.747040,49.622498 432.777313,55.156193 425.831665,59.519783 
	C424.359985,60.444344 423.568878,62.074585 424.347076,63.349632 
	C425.828827,65.777359 428.157745,67.607300 431.129364,67.823753 
	C436.124664,68.187622 441.071533,68.823936 445.925964,70.003242 
	C449.144562,70.785141 452.364868,71.693718 455.439270,72.911972 
	C467.764862,77.796104 471.662964,85.693810 468.490417,98.688309 
	C467.352539,103.349106 465.459900,107.744011 463.672424,112.158730 
	C465.763367,113.234550 467.627991,112.783165 469.418610,112.784355 
	C513.584961,112.813789 557.751282,112.803757 601.917664,112.809570 
	C615.228149,112.811317 619.862061,117.479156 619.862488,130.894730 
	C619.866333,249.727249 619.865173,368.559753 619.863525,487.392273 
	C619.863403,494.016937 619.855408,494.017639 613.293396,494.020813 
	C609.793396,494.022491 606.285645,494.165863 602.795776,493.977783 
	C599.729492,493.812561 599.654419,494.786285 600.577942,497.404663 
	C602.633301,503.231659 606.337585,509.028137 601.596680,515.790894 
	C610.243835,516.366394 619.800293,513.986755 623.066284,525.537964 
	C623.918762,540.974060 623.320679,556.062439 623.253723,571.601746 
z"/>
<path fill="#7B7F82" opacity="1.000000" stroke="none" 
	d="
M623.295105,571.959961 
	C623.053345,556.985535 623.039734,541.913452 623.076660,526.368286 
	C623.127136,525.895325 623.563782,525.945862 623.781860,525.972900 
	C624.000000,541.020874 624.000000,556.041809 624.000000,571.531372 
	C624.000000,572.000000 623.523193,571.862305 623.295105,571.959961 
z"/>
<path fill="#3C3E40" opacity="1.000000" stroke="none" 
	d="
M114.468658,721.000000 
	C115.474342,719.372620 117.424049,720.069458 119.154076,720.075745 
	C128.251404,720.108704 137.348282,720.262451 146.722656,720.687134 
	C136.312439,721.000000 125.624878,721.000000 114.468658,721.000000 
z"/>
<path fill="#FDFDFD" opacity="1.000000" stroke="none" 
	d="
M359.282837,290.294312 
	C351.791748,297.781494 351.790253,297.783997 343.116241,292.596558 
	C329.135315,284.235291 315.121582,275.927704 301.211273,267.450531 
	C298.897461,266.040466 297.206787,265.998230 294.904785,267.419708 
	C279.485870,276.940796 264.027679,286.400726 248.470154,295.692810 
	C245.524506,297.452148 244.342728,299.438080 244.391541,302.868134 
	C244.567032,315.198395 244.324615,327.535065 244.541855,339.864014 
	C244.608337,343.637085 243.796631,345.008881 239.673172,344.921265 
	C226.179871,344.634552 212.662491,344.446350 199.183273,344.967773 
	C192.386612,345.230713 187.162506,343.569519 182.342407,338.729858 
	C177.052948,333.418915 176.834839,333.801392 182.191696,328.722351 
	C192.462555,318.984161 202.672516,309.180664 212.812485,299.306458 
	C215.058426,297.119385 217.272202,295.968384 220.605453,295.883636 
	C228.258514,295.689056 235.105728,292.627655 241.500000,288.530853 
	C245.866165,285.733459 249.692703,282.274628 253.561035,278.859314 
	C259.358215,273.741028 261.407440,267.366028 259.436890,259.957672 
	C258.563385,256.673645 259.164124,254.411438 261.514038,251.972061 
	C266.013306,247.301544 270.201660,242.327835 274.449982,237.420166 
	C281.076843,229.764755 280.678009,222.652664 273.238068,215.611633 
	C271.936768,214.380081 270.435760,213.359528 269.026978,212.241516 
	C269.225830,211.820557 269.424683,211.399582 269.623535,210.978607 
	C272.023895,210.978607 274.424866,211.011337 276.824249,210.963898 
	C277.916901,210.942276 278.812561,210.403534 278.925385,209.244461 
	C279.065369,207.806046 278.154541,207.083359 276.818695,207.038239 
	C274.487946,206.959549 272.098755,206.669235 269.831360,207.048843 
	C264.564789,207.930557 261.623260,205.017456 258.316132,200.539612 
	C263.676849,200.539612 268.270081,200.746719 272.831299,200.454697 
	C275.212189,200.302261 279.604492,202.078430 279.565704,198.787277 
	C279.520477,194.951599 275.073944,197.246536 272.619446,196.909241 
	C269.675140,196.504654 266.589355,196.486038 263.641449,196.877472 
	C255.989990,197.893478 249.940353,195.683258 245.656677,188.189941 
	C252.281067,188.189941 258.788635,188.190018 265.296204,188.189896 
	C268.629395,188.189835 271.963745,188.240707 275.295166,188.164337 
	C276.664001,188.132965 278.722809,188.699692 278.660248,186.387207 
	C278.603790,184.301498 276.680847,184.488770 275.218445,184.484573 
	C265.552277,184.456894 255.878494,184.244171 246.223175,184.567871 
	C241.770187,184.717163 238.526611,183.490814 236.164139,179.521606 
	C237.467819,178.569565 238.970261,179.049057 240.331497,179.043518 
	C251.830795,178.996658 263.331116,179.082413 274.829071,178.949692 
	C276.663300,178.928528 280.054443,180.334900 279.914398,176.990097 
	C279.785950,173.922699 276.475616,175.219711 274.566040,175.203339 
	C261.567566,175.091949 248.566635,175.054993 235.569046,175.208847 
	C232.347351,175.246964 229.896194,174.491791 227.659744,172.071030 
	C216.616257,160.117371 209.642197,157.552704 196.292999,171.551849 
	C194.017929,173.937683 191.469727,174.548782 188.294907,174.524109 
	C172.463257,174.401016 156.630081,174.448761 140.797623,174.496094 
	C139.113266,174.501129 136.413681,173.800873 136.467621,176.416519 
	C136.521698,179.038818 139.234772,178.146545 140.880188,178.153946 
	C154.879257,178.216812 168.878738,178.189911 182.878098,178.189926 
	C184.460938,178.189926 186.043762,178.189941 188.320938,178.189941 
	C184.946167,182.497711 181.882889,184.790421 176.685196,184.602493 
	C164.867844,184.175278 153.024323,184.439590 141.191849,184.500381 
	C139.521347,184.508957 136.845596,183.783493 136.884857,186.459564 
	C136.925888,189.255844 139.656128,188.124649 141.217514,188.137405 
	C152.993515,188.233597 164.770645,188.189896 177.520401,188.189896 
	C172.749344,193.171036 169.343445,197.846909 162.000488,197.132858 
	C154.901306,196.442505 147.682358,196.975159 140.516052,196.991028 
	C139.046158,196.994278 137.140503,196.756119 137.150421,198.891022 
	C137.159988,200.947266 138.991943,200.857178 140.510422,200.857285 
	C147.954742,200.857803 155.399063,200.857529 163.681808,200.857529 
	C160.241943,204.949188 157.386673,207.948837 152.161423,207.054230 
	C149.732727,206.638443 147.120529,206.663910 144.688385,207.069778 
	C142.063904,207.507690 137.213486,205.127670 137.306305,209.133743 
	C137.391876,212.826736 142.235062,210.478546 144.918564,210.938751 
	C147.142548,211.320160 149.483963,211.016785 152.825455,211.016785 
	C148.944717,214.793549 146.468338,218.717346 140.952972,217.880432 
	C139.659515,217.684158 137.658752,217.063873 137.052643,219.000610 
	C136.206299,221.704880 139.255875,221.130859 140.714081,222.396484 
	C135.601501,227.071915 130.703720,231.535767 125.827629,236.023193 
	C124.884743,236.890930 123.801834,237.335022 122.651680,236.792999 
	C121.518402,236.258942 122.040672,235.043243 122.039986,234.142365 
	C122.013290,199.143982 121.980202,164.145477 122.059258,129.147263 
	C122.071060,123.920639 125.376846,120.549675 130.603500,119.817116 
	C132.242493,119.587410 133.918839,119.551010 135.578140,119.550415 
	C174.409698,119.536476 213.241318,119.568390 252.072708,119.486725 
	C255.289536,119.479958 257.360840,119.818756 258.974487,123.323975 
	C261.804626,129.471619 270.855225,130.986893 276.051514,126.785461 
	C276.754211,126.217308 276.800751,124.902122 278.456085,126.363976 
	C283.058563,130.428604 286.623260,129.355911 287.878082,123.161873 
	C288.821381,118.505623 290.943665,117.893250 295.146576,117.913177 
	C332.644012,118.091064 370.142670,118.016808 407.640961,118.016808 
	C409.278839,118.016808 410.916748,118.016800 413.374969,118.016800 
	C407.974243,126.216568 402.283722,133.582275 398.008392,141.693863 
	C393.430389,150.379639 387.705536,153.408127 377.646393,152.242813 
	C356.211121,149.759644 334.389221,150.917847 313.250275,145.337936 
	C307.932556,143.934265 303.379303,145.634567 299.886566,149.907379 
	C295.285553,155.535980 292.101959,161.891403 290.706879,169.035202 
	C290.083679,172.226440 289.922729,175.666687 293.992188,176.832047 
	C297.847443,177.936035 299.782837,175.572403 301.092438,172.284149 
	C301.809479,170.483780 302.121613,168.403641 304.195831,166.885117 
	C305.403229,169.648483 304.682007,172.410263 304.778931,175.048676 
	C305.030487,181.898483 305.988495,182.871185 312.631653,184.681000 
	C315.201660,185.381149 317.728027,186.215759 320.372040,186.432556 
	C325.308441,186.837341 329.297211,185.255539 331.136841,180.290604 
	C332.026733,177.888870 333.249939,176.946014 335.786194,177.920380 
	C336.678955,178.263351 337.855347,178.405594 338.747009,178.132568 
	C350.427063,174.556152 361.185303,180.115646 372.364990,181.427216 
	C381.947113,182.551361 391.435211,184.404526 401.102875,184.886459 
	C411.091034,185.384354 418.706329,181.460861 424.711304,173.529160 
	C435.480499,159.304688 445.216370,144.348022 453.572601,128.679535 
	C458.526855,119.389999 464.270294,116.397720 474.769562,116.567749 
	C517.756287,117.263863 560.760925,116.855911 603.758972,116.860260 
	C612.556030,116.861145 615.803894,120.074760 615.804504,128.878830 
	C615.812927,247.706741 615.792908,366.534637 615.892090,485.362488 
	C615.895142,488.985077 615.195557,490.142670 611.324463,490.091339 
	C597.814514,489.912170 597.885742,490.054749 593.044128,477.630798 
	C584.241272,455.042084 575.359070,432.484253 566.456726,409.934509 
	C565.492188,407.491272 566.248413,405.988617 567.316956,403.536530 
	C569.903687,397.600555 573.645935,394.806793 579.718811,392.884705 
	C584.814026,391.272003 586.245911,385.049683 584.535034,379.141296 
	C583.317810,374.937744 581.084595,371.261353 578.424683,367.812012 
	C568.849304,355.395142 562.399231,341.492828 558.404114,326.348816 
	C557.275879,322.072113 558.342285,320.959869 562.664856,321.101074 
	C571.654785,321.394684 580.661987,321.266052 589.660461,321.167053 
	C598.850891,321.065918 603.020264,316.781555 603.011108,307.603638 
	C602.971313,267.607239 602.922058,227.610809 602.851013,187.614441 
	C602.832153,177.011826 598.616089,172.822418 587.988892,172.819504 
	C539.491089,172.806229 490.993317,172.805756 442.495544,172.819641 
	C431.434174,172.822800 427.810425,176.468964 427.810211,187.452286 
	C427.809753,209.784607 427.700378,232.117920 427.905212,254.448364 
	C427.944824,258.767151 427.188690,260.499146 422.348389,260.274323 
	C412.869263,259.834137 403.353790,260.238770 393.856598,260.088379 
	C390.982422,260.042847 388.883545,260.806549 386.822388,262.900146 
	C377.822113,272.042084 368.645813,281.010681 359.282837,290.294312 
z"/>
<path fill="#FEFEFE" opacity="1.000000" stroke="none" 
	d="
M121.861748,518.938171 
	C123.586479,484.729828 125.315140,451.004486 127.029045,417.278442 
	C127.295128,412.042511 129.599533,407.338531 130.792267,402.347931 
	C131.167572,400.777557 132.674744,398.455872 129.872299,397.796051 
	C127.566460,397.253113 127.675591,399.758209 127.069031,401.149506 
	C122.419731,411.813629 122.815826,423.259979 122.209641,434.490143 
	C119.950302,476.346161 117.961876,518.216736 115.795540,560.077942 
	C113.964478,595.460693 111.992020,630.836182 110.207367,666.221191 
	C110.067108,669.002136 109.371536,669.926575 106.510231,669.874451 
	C97.183258,669.704285 87.849594,669.713196 78.522163,669.870422 
	C75.750565,669.917175 74.846924,669.203064 74.792747,666.293335 
	C74.238091,636.504944 73.579216,606.718201 72.849472,576.933472 
	C71.671623,528.859253 70.432716,480.786530 69.169724,432.714508 
	C69.070633,428.942871 68.806366,425.825500 74.087440,425.085632 
	C77.678795,424.582489 79.954903,420.915344 82.666245,418.499329 
	C99.192902,403.772980 115.657127,388.976593 132.150528,374.212891 
	C135.434143,371.273590 141.667160,373.069305 142.593628,377.357300 
	C149.649429,410.014099 156.179565,442.772217 160.975433,475.850128 
	C162.670334,487.540100 163.889923,499.285034 165.069000,511.042114 
	C166.905106,529.350830 164.189148,547.209167 160.579590,565.006592 
	C153.806763,598.401062 144.927719,631.273743 135.836929,664.093079 
	C135.001724,667.108398 134.075882,668.491516 130.547577,667.129822 
	C125.462784,665.167419 118.441826,665.323120 115.378067,661.829285 
	C112.245964,658.257568 114.937241,651.385986 115.208168,645.987183 
	C117.325546,603.793396 119.620613,561.608582 121.861748,518.938171 
z"/>
<path fill="#FEFEFE" opacity="1.000000" stroke="none" 
	d="
M160.925598,450.027130 
	C159.484253,441.904327 158.363037,434.150421 156.592514,426.547699 
	C155.766373,423.000214 156.881058,422.799652 159.819977,422.810333 
	C184.974640,422.901764 210.130554,422.762848 235.283905,422.965332 
	C239.279404,422.997528 241.681778,421.684753 243.945862,418.549042 
	C253.197571,405.735687 262.807159,393.179291 271.965698,380.301208 
	C274.197784,377.162567 275.754120,377.322205 278.571289,379.146729 
	C284.008240,382.667877 289.719818,385.763428 295.182495,389.247162 
	C297.412598,390.669373 299.154510,390.790100 301.493439,389.416595 
	C307.794769,385.716064 314.364136,382.467072 320.614777,378.687622 
	C323.290924,377.069458 324.809753,377.466736 326.841736,379.606567 
	C331.310669,384.312714 336.162994,388.654633 340.636414,393.356842 
	C342.644897,395.468048 344.727325,396.282959 347.618591,396.252258 
	C360.277954,396.117828 372.948822,396.477356 385.596039,396.063232 
	C391.105469,395.882874 394.606049,397.127045 395.290039,403.462585 
	C392.467682,403.715546 389.372681,403.670898 386.426636,404.311249 
	C371.764465,407.498322 364.047058,421.740631 368.487427,437.261200 
	C370.428314,444.045166 373.861389,450.097260 377.911774,455.832031 
	C385.274384,466.256348 392.602692,476.704895 400.533752,487.979889 
	C398.223785,487.979889 396.825897,487.979889 395.428009,487.979889 
	C320.796021,487.979889 246.163971,487.945862 171.532211,488.073914 
	C167.529877,488.080780 166.290512,487.105743 165.823502,483.012726 
	C164.580551,472.118713 162.641876,461.304108 160.925598,450.027130 
z"/>
<path fill="#FEFEFE" opacity="1.000000" stroke="none" 
	d="
M497.000061,176.861664 
	C527.816040,176.861664 558.132080,176.858124 588.448059,176.864014 
	C596.530640,176.865585 598.785339,179.135345 598.807434,187.209991 
	C598.916443,227.016159 599.035522,266.822296 599.132080,306.628479 
	C599.152588,315.102325 597.065430,317.137665 588.529968,317.140869 
	C579.535095,317.144257 570.529846,316.888275 561.550171,317.257599 
	C557.567444,317.421417 556.393738,315.904907 556.072449,312.376343 
	C555.694153,308.221802 554.449097,304.225891 552.843933,300.379761 
	C548.921387,290.981171 541.843689,285.996948 531.639587,285.882660 
	C528.797485,285.850800 526.821655,284.986969 524.607483,283.166443 
	C516.915771,276.842285 508.023529,274.964172 498.404602,277.737061 
	C490.499359,280.015930 484.334625,285.059631 478.786560,290.936249 
	C477.461334,292.339966 476.284973,293.808533 478.009216,295.647369 
	C480.077972,297.853607 479.644318,299.892303 478.088074,302.200378 
	C477.180481,303.546509 476.144196,305.318451 476.299072,306.778564 
	C476.928528,312.711548 471.671448,314.675751 468.963654,318.322052 
	C468.191956,319.361176 466.763184,318.782043 465.646027,318.787628 
	C457.317657,318.829224 448.988525,318.865234 440.660583,318.791656 
	C434.625214,318.738373 431.591919,315.952850 431.582214,310.019440 
	C431.514374,268.543274 431.514954,227.066879 431.581726,185.590698 
	C431.591614,179.450531 434.384949,176.883881 440.532104,176.873337 
	C459.188049,176.841339 477.844055,176.861694 497.000061,176.861664 
z"/>
<path fill="#FDFDFD" opacity="1.000000" stroke="none" 
	d="
M384.462036,408.981171 
	C386.808838,408.504974 388.749359,408.077148 390.707581,407.757355 
	C395.258545,407.014099 399.183319,407.433685 401.301788,412.501678 
	C402.108917,414.432587 403.746704,416.054504 405.154572,417.689209 
	C410.569275,423.976440 417.113739,426.593353 425.147034,423.225555 
	C428.608856,421.774261 431.142822,422.429382 434.085999,424.782715 
	C446.820679,434.965088 459.842621,444.787720 472.605957,454.935059 
	C475.829926,457.498230 477.467957,457.444519 479.107056,453.441681 
	C481.809082,446.843170 485.054840,440.468018 487.785400,433.880127 
	C488.920197,431.142212 490.524994,430.190735 493.398804,430.140564 
	C505.373840,429.931488 517.348633,429.607300 529.315918,429.133606 
	C532.076965,429.024261 533.458252,429.848206 534.500061,432.460693 
	C541.688599,450.486725 549.069458,468.435913 556.319397,486.437653 
	C559.512329,494.365753 559.070984,502.321564 556.216614,510.275299 
	C554.946106,513.815735 552.863708,515.437927 548.844849,515.551697 
	C522.708069,516.291870 496.590698,515.526245 470.467163,514.980469 
	C465.026764,514.866821 461.132568,511.974243 457.318787,508.685547 
	C447.689545,500.382263 440.276886,490.019501 431.507751,480.911743 
	C421.236816,470.244171 411.204865,459.346741 400.988983,448.625519 
	C399.874969,447.456360 398.640533,444.817352 396.674896,446.514038 
	C394.385681,448.490112 396.960571,450.011536 398.207794,451.354156 
	C403.150085,456.674591 408.171692,461.921387 414.037109,468.117981 
	C406.187042,468.117981 399.474182,468.097137 392.761658,468.137390 
	C391.569489,468.144531 390.936127,467.450867 390.388123,466.628906 
	C385.048035,458.619415 378.569427,451.351410 374.555664,442.478241 
	C370.441315,433.382782 369.012939,424.384979 375.429352,415.582733 
	C377.677582,412.498566 380.637878,410.518738 384.462036,408.981171 
z"/>
<path fill="#FEFEFE" opacity="1.000000" stroke="none" 
	d="
M221.190643,286.170959 
	C203.514709,303.108337 186.040176,319.738098 168.738831,336.546143 
	C166.464111,338.756012 164.861450,338.764618 162.446320,337.191406 
	C159.881119,335.520477 157.972092,333.244904 155.919510,331.077393 
	C148.493530,323.235504 142.445770,322.081909 132.700150,326.642426 
	C131.510330,327.199188 130.429642,327.903320 128.962692,327.756348 
	C114.404465,326.297699 99.840179,324.899536 85.279350,323.466644 
	C84.808128,323.420258 84.355423,323.185852 83.185104,322.813599 
	C90.555809,315.857117 97.605965,309.171600 104.690086,302.522308 
	C146.172272,263.586456 187.701981,224.700974 229.069214,185.643402 
	C232.139328,182.744675 233.603149,182.901779 236.483139,185.726669 
	C247.762238,196.790131 259.353912,207.534271 270.779785,218.449020 
	C276.521515,223.933899 276.701660,228.963608 271.463318,234.960678 
	C266.803986,240.294861 262.082977,245.575180 257.305573,250.973770 
	C255.349258,248.965027 254.296524,246.618668 252.109360,245.246048 
	C248.239929,242.817657 245.243179,243.177261 242.988220,247.164886 
	C241.950699,248.999634 240.813431,248.707062 239.367508,248.786102 
	C234.522583,249.050949 230.496246,250.865417 228.994751,255.802078 
	C228.295135,258.102264 227.043259,257.787018 225.340622,257.940186 
	C221.034302,258.327515 219.543213,260.745819 221.024719,264.816315 
	C221.699600,266.670593 222.757721,268.393738 223.718384,270.134186 
	C228.219894,278.289551 228.073715,279.368988 221.190643,286.170959 
z"/>
<path fill="#5170FC" opacity="1.000000" stroke="none" 
	d="
M497.999878,577.406250 
	C454.858948,577.406250 412.217987,577.408264 369.577057,577.404297 
	C359.637817,577.403381 357.210968,574.980347 357.194183,565.043701 
	C357.181244,557.381653 357.272919,549.718323 357.148865,542.058289 
	C357.107117,539.481506 357.961090,538.324524 360.576080,538.590393 
	C361.400269,538.674194 362.240417,538.600525 363.073242,538.600525 
	C446.522919,538.600464 529.972656,538.641541 613.422058,538.492981 
	C618.157776,538.484558 619.815186,539.515564 619.516724,544.472473 
	C619.067078,551.940857 619.414734,559.456360 619.395386,566.951782 
	C619.374878,574.887085 616.925720,577.388062 608.933411,577.393921 
	C572.122253,577.420776 535.311096,577.405945 497.999878,577.406250 
z"/>
<path fill="#5271FE" opacity="1.000000" stroke="none" 
	d="
M352.233459,357.141541 
	C339.638428,363.154785 328.198486,370.289948 316.350525,376.669647 
	C311.811462,379.113770 307.194092,381.447815 302.849243,384.205200 
	C299.810913,386.133362 297.511017,386.184784 294.319458,384.207977 
	C280.458801,375.622986 266.432281,367.301514 252.356781,359.071228 
	C249.559494,357.435577 248.489960,355.641602 248.526779,352.360840 
	C248.706314,336.365356 248.692474,320.365967 248.534775,304.370026 
	C248.504288,301.277283 249.603104,299.594666 252.175873,298.054169 
	C266.453125,289.505096 280.670410,280.853485 294.805206,272.071198 
	C297.324188,270.506073 299.167572,270.728821 301.561249,272.179413 
	C316.645721,281.320801 331.781464,290.378662 346.971252,299.343872 
	C349.224060,300.673492 350.420959,302.047821 350.171509,304.814667 
	C349.665955,310.422699 350.824463,316.102966 349.475830,321.697937 
	C348.991455,323.707428 350.913727,324.502075 351.940857,326.095154 
	C354.809021,336.488861 354.252777,346.635193 352.233459,357.141541 
z"/>
<path fill="#FDFDFD" opacity="1.000000" stroke="none" 
	d="
M427.808350,304.952759 
	C427.808472,307.275970 427.768402,309.109100 427.815857,310.940002 
	C427.996185,317.897278 432.442993,322.428894 439.458435,322.513672 
	C448.784180,322.626434 458.115814,322.689880 467.437775,322.471100 
	C471.292023,322.380646 473.548370,323.506256 474.910645,327.321838 
	C477.217194,333.782440 481.666595,338.072418 488.966431,337.939270 
	C492.249237,337.879425 492.164886,340.310028 492.871796,342.119476 
	C495.688873,349.330750 495.674316,349.616882 488.453369,350.608765 
	C475.702911,352.360107 464.832489,358.103699 454.688019,365.609161 
	C445.996979,372.039276 437.226135,378.363647 428.620453,384.905579 
	C426.439819,386.563263 425.375488,386.602753 423.564392,384.315460 
	C417.058899,376.099457 410.273651,368.104858 403.584106,360.034851 
	C400.910309,356.809296 401.682434,352.842194 400.887115,348.760651 
	C404.557007,349.075165 407.303772,350.973999 410.272888,352.096344 
	C414.197998,353.580078 417.197815,352.767029 419.034943,349.005798 
	C420.703766,345.589203 418.884125,342.117645 414.725342,340.358551 
	C412.743347,339.520233 410.732697,338.725433 408.682465,338.077332 
	C403.741669,336.515442 399.853546,334.316406 396.877106,329.364441 
	C392.005554,321.259705 384.278839,319.730286 375.285522,323.696503 
	C373.531769,324.469971 372.032104,324.063629 370.464111,323.683990 
	C366.589722,322.745850 362.766083,320.958496 358.885010,320.851105 
	C354.139160,320.719727 354.305939,318.432251 353.859619,314.805084 
	C352.658722,305.045502 355.907440,297.922791 363.404907,291.495331 
	C372.482391,283.713348 380.599426,274.804626 389.042480,266.294617 
	C390.684021,264.640015 392.334381,263.928711 394.696594,263.962280 
	C404.188354,264.097198 413.687805,264.189484 423.174438,263.930603 
	C426.783600,263.832153 428.012787,264.571991 427.915985,268.488525 
	C427.619812,280.473145 427.808350,292.469727 427.808350,304.952759 
z"/>
<path fill="#FDFDFD" opacity="1.000000" stroke="none" 
	d="
M238.818085,418.465820 
	C211.869415,418.762634 185.231216,418.770233 158.593170,418.842346 
	C156.388245,418.848328 155.096283,418.641235 154.564331,415.923370 
	C151.886688,402.242645 148.947372,388.612640 146.033203,374.979126 
	C145.578156,372.850250 145.667511,371.456238 148.339188,371.324005 
	C151.866745,371.149445 152.009293,366.121216 155.940292,365.997894 
	C157.256912,365.956573 158.438049,365.450012 159.996628,365.832489 
	C164.544769,366.948517 167.337296,364.217743 166.794708,359.417419 
	C166.399246,355.918884 165.014206,352.692535 163.460052,349.374969 
	C166.686905,348.073303 170.955078,347.886871 169.297379,342.249298 
	C168.753784,340.400604 171.674576,338.915131 173.227386,337.538635 
	C174.968216,335.995483 176.036575,338.090820 176.796326,339.011749 
	C183.792572,347.492035 192.733322,349.450500 203.377487,348.734375 
	C215.642532,347.909210 228.007126,348.644775 240.325348,348.474884 
	C243.630768,348.429291 245.505783,349.104370 244.798050,352.782288 
	C243.866287,357.624542 246.089081,360.288879 250.318542,362.467438 
	C256.508301,365.655792 262.289215,369.627991 268.374878,373.032928 
	C270.957336,374.477875 270.944275,375.558411 269.233429,377.821533 
	C259.110565,391.212372 249.146240,404.723083 238.818085,418.465820 
z"/>
<path fill="#FDFDFD" opacity="1.000000" stroke="none" 
	d="
M475.252747,358.068176 
	C481.261963,355.854065 487.088806,354.555328 493.061218,353.953186 
	C496.216980,353.635010 499.150574,352.859070 502.147064,351.678558 
	C507.686249,349.496246 513.396912,348.542969 518.377502,353.430145 
	C519.290527,354.325989 520.611572,355.179077 521.831604,355.325806 
	C527.840637,356.048462 527.180664,359.866608 525.808167,363.802826 
	C524.555908,367.394104 522.873596,370.833527 521.436096,374.362366 
	C518.501587,381.566010 518.686707,388.623688 522.707336,395.387970 
	C525.069641,399.362244 528.630005,401.726440 533.277222,401.898682 
	C535.443665,401.978973 536.133362,402.359650 535.725769,404.674744 
	C534.687683,410.571106 533.763855,416.497375 533.106628,422.446167 
	C532.841370,424.847443 531.924438,425.462830 529.674011,425.507629 
	C517.366577,425.752533 505.059143,426.060791 492.758331,426.523804 
	C490.089294,426.624268 488.463806,425.758057 487.051025,423.545074 
	C482.845032,416.956879 478.424255,410.506042 474.181335,403.940826 
	C473.419922,402.762726 471.395020,401.366211 473.973907,399.903320 
	C475.334656,399.131439 476.882965,398.078064 475.626373,396.490723 
	C474.276520,394.785553 472.616943,396.219116 471.177582,396.980164 
	C461.928314,401.871033 452.733887,406.869629 443.410645,411.615173 
	C437.053894,414.850708 430.441772,417.526550 423.675812,419.845551 
	C417.274261,422.039612 412.326050,420.066132 408.110992,415.213989 
	C403.475677,409.878021 400.418457,403.592316 397.307037,397.341827 
	C394.200073,391.100220 391.277863,384.762268 388.006897,378.608887 
	C386.789276,376.318268 386.758240,374.685028 388.668152,372.939423 
	C390.765717,371.022308 392.919922,369.203156 395.541687,368.045685 
	C401.182983,365.555115 403.493042,366.107239 407.427979,370.866669 
	C411.671417,375.999237 415.823181,381.210449 420.174011,386.250031 
	C421.930481,388.284546 423.089020,389.850006 419.936432,391.567291 
	C418.605438,392.292328 417.131897,393.535645 418.290192,395.138245 
	C419.774780,397.192261 421.233582,395.391144 422.468292,394.450378 
	C436.495056,383.763336 450.377747,372.874786 465.230194,363.330475 
	C468.287109,361.366058 471.654510,359.884705 475.252747,358.068176 
z"/>
<path fill="#5170FD" opacity="1.000000" stroke="none" 
	d="
M464.749939,85.960907 
	C466.664398,95.241943 463.856415,103.375862 459.698456,110.781662 
	C448.129333,131.387360 435.879181,151.586105 421.925934,170.722290 
	C415.958710,178.906097 408.169495,181.817474 398.494354,180.882187 
	C396.924469,180.730423 394.897888,181.031799 395.470459,178.262421 
	C397.058807,170.580017 394.193817,163.912842 390.132172,157.024567 
	C393.166016,157.024567 395.722443,157.075241 398.275482,157.004044 
	C399.631409,156.966217 401.458405,157.653931 401.572144,155.181915 
	C401.685516,152.717804 399.890656,153.231491 398.489105,153.092834 
	C397.663452,153.011139 396.837433,152.933792 395.947632,152.848343 
	C395.501892,151.079147 396.918274,150.146469 397.664368,149.010468 
	C407.260040,134.400238 416.906555,119.823387 426.541626,105.239052 
	C427.000305,104.544769 427.521271,103.886833 427.926941,103.163559 
	C428.480865,102.175941 429.348145,101.123955 428.039856,100.086670 
	C426.583466,98.931892 425.562164,99.780304 424.752075,100.979172 
	C422.421631,104.427856 420.050995,107.854141 417.863220,111.392548 
	C416.690155,113.289833 415.314392,114.060089 413.015900,114.029510 
	C403.185883,113.898743 393.350159,113.840851 383.523163,114.056816 
	C380.661743,114.119698 379.306183,113.029213 378.283569,110.623512 
	C377.179138,108.025261 375.862061,105.510330 374.517853,103.023872 
	C373.791290,101.679901 373.378204,99.236122 371.177948,100.279106 
	C368.621796,101.490791 370.524475,103.445610 371.196594,104.951920 
	C372.456543,107.775795 373.915588,110.510864 375.523529,113.749527 
	C359.679077,113.749527 344.595428,113.749527 329.462585,113.749527 
	C328.723450,112.255714 330.208618,111.721817 330.882874,111.017021 
	C343.840790,97.471710 357.706268,85.076530 374.969879,77.147194 
	C380.269836,74.712898 385.592194,72.382088 391.395538,76.235764 
	C392.814606,77.178085 394.890656,77.345100 396.690216,77.456795 
	C400.723145,77.707123 404.518158,76.922966 407.466370,81.605911 
	C409.436523,84.735275 414.276215,83.414246 417.829773,82.620094 
	C420.768158,81.963409 424.149780,80.686752 425.350739,78.069168 
	C429.012787,70.087601 435.254150,71.953392 441.443176,73.055695 
	C446.364258,73.932182 451.203217,75.153801 455.776337,77.212769 
	C459.665161,78.963654 462.982483,81.390884 464.749939,85.960907 
z"/>
<path fill="#5170FD" opacity="1.000000" stroke="none" 
	d="
M74.725861,282.835999 
	C73.254524,283.746033 72.093987,287.003723 70.814163,283.096893 
	C70.452026,281.991394 69.435165,281.670776 68.377411,282.156006 
	C67.334732,282.634338 67.056587,283.639404 67.214661,284.681854 
	C69.108330,297.169250 70.303085,309.793823 74.334541,321.868744 
	C75.382683,325.008148 77.489868,326.754028 80.952797,326.986511 
	C84.589989,327.230713 88.204605,327.811127 92.120918,328.279510 
	C91.222763,331.608337 90.208473,334.738220 89.550659,337.941284 
	C88.314293,343.961456 88.426361,349.928619 91.868790,355.288483 
	C93.510460,357.844574 92.922333,358.653931 90.124390,359.040192 
	C83.210609,359.994568 76.315666,361.089172 69.420944,362.176788 
	C61.334343,363.452423 55.575703,359.934082 51.294514,353.413788 
	C47.871132,348.199951 45.876347,342.361603 44.504189,336.356354 
	C41.098827,321.452728 37.798615,306.523468 34.644802,291.564728 
	C33.404701,285.682892 33.321415,279.684204 33.968925,273.675262 
	C34.775314,266.191925 38.300182,260.578857 44.826981,256.755249 
	C51.522930,252.832504 58.802734,250.606232 66.326591,249.090836 
	C70.672241,248.215576 73.775375,246.078537 74.432785,241.514420 
	C74.761070,239.235214 75.942085,238.433426 77.960030,238.104614 
	C80.421814,237.703506 82.883263,237.257004 85.306038,236.669922 
	C89.074783,235.756714 92.640892,234.155273 94.773338,239.654770 
	C95.823929,242.364166 99.218430,242.758743 102.237129,242.500031 
	C107.693085,242.032471 113.159088,241.682205 120.230019,241.165344 
	C104.489868,255.577240 89.740677,269.081787 74.725861,282.835999 
z"/>
<path fill="#FCFCFC" opacity="1.000000" stroke="none" 
	d="
M186.425323,220.420837 
	C150.436340,254.233032 114.707603,287.806793 78.558647,321.775452 
	C74.769714,311.743256 73.875015,301.833405 72.126976,292.113525 
	C71.737518,289.948029 73.594688,289.257416 74.716217,288.227631 
	C108.154366,257.524994 141.636124,226.869858 175.106598,196.202423 
	C184.545456,187.554031 193.973816,178.894180 203.400894,170.232971 
	C209.430466,164.693268 213.853714,164.563019 219.930206,170.019058 
	C223.265106,173.013428 228.641052,176.044327 228.959473,179.446045 
	C229.285080,182.924240 223.419815,185.768311 220.208191,188.814316 
	C209.104843,199.345047 197.870224,209.737381 186.425323,220.420837 
z"/>
<path fill="#FDFDFD" opacity="1.000000" stroke="none" 
	d="
M54.511543,362.620819 
	C60.845455,367.351654 67.633202,366.575684 74.440369,365.587921 
	C89.080040,363.463531 103.576088,360.567291 117.906166,356.932831 
	C121.238831,356.087585 123.214043,356.712372 124.744843,359.609985 
	C125.206268,360.483368 125.875175,361.254333 126.494980,362.035767 
	C131.989761,368.963287 132.023575,368.995056 125.611877,374.761169 
	C109.166687,389.550598 92.698792,404.314819 76.223732,419.070984 
	C71.486969,423.313568 68.310699,423.428680 64.154900,419.245850 
	C51.370411,406.378204 38.709301,393.387695 25.882240,380.562958 
	C24.117344,378.798401 24.301065,377.918030 25.978168,376.382202 
	C32.478065,370.429779 38.979023,364.469513 45.240517,358.270660 
	C47.417053,356.115875 48.601101,355.674042 50.344208,358.558228 
	C51.256489,360.067719 52.905540,361.131897 54.511543,362.620819 
z"/>
<path fill="#506FFA" opacity="1.000000" stroke="none" 
	d="
M394.999939,534.817017 
	C383.501617,534.816895 372.500305,534.672913 361.506622,534.898499 
	C357.892761,534.972595 356.960388,533.736694 357.128174,530.335449 
	C357.495453,522.889465 360.380524,519.882019 368.024475,519.880066 
	C448.342834,519.859436 528.661194,519.858154 608.979553,519.881165 
	C617.233459,519.883545 620.736511,524.246887 619.428650,532.424805 
	C619.173096,534.023132 618.638916,534.858887 616.966125,534.811462 
	C615.634216,534.773804 614.300171,534.816467 612.967041,534.816528 
	C540.478027,534.817078 467.988983,534.817078 394.999939,534.817017 
z"/>
<path fill="#5270FE" opacity="1.000000" stroke="none" 
	d="
M102.909706,673.606689 
	C106.001465,673.461914 107.894257,673.341919 108.197647,677.212158 
	C109.485985,693.647095 113.718071,698.815063 129.557846,702.854553 
	C137.100571,704.778076 141.781296,708.932251 143.875565,716.339233 
	C142.686295,717.463989 141.303085,716.938782 140.080688,716.944397 
	C120.120056,717.035339 100.158386,716.995544 80.199158,717.200500 
	C76.697395,717.236450 75.725723,716.361267 75.902725,712.756592 
	C76.465027,701.305542 76.760803,689.833923 76.804443,678.368896 
	C76.819542,674.403870 78.168983,673.358704 81.961899,673.523499 
	C88.769547,673.819275 95.599266,673.606873 102.909706,673.606689 
z"/>
<path fill="#FBFBFB" opacity="1.000000" stroke="none" 
	d="
M147.709991,367.355682 
	C145.409027,367.617401 142.901077,364.782318 141.792862,369.440460 
	C141.293259,371.540375 138.964981,369.592010 137.843491,368.574677 
	C133.388916,364.533630 129.549286,359.917694 126.235878,354.925018 
	C124.484962,352.286743 122.751862,351.602783 119.621140,352.506622 
	C113.891441,354.160828 107.949661,355.070862 102.192642,356.643799 
	C99.040855,357.504974 97.195847,356.494812 95.531624,353.981628 
	C91.839088,348.405457 92.150482,335.822266 96.025040,330.057343 
	C97.191704,328.321503 98.600143,328.837616 99.968391,328.947815 
	C109.246437,329.695068 118.527390,330.432587 127.784813,331.391357 
	C130.206589,331.642151 132.185089,331.398987 134.379562,330.199127 
	C141.632263,326.233582 146.523514,326.915070 152.241302,332.989044 
	C156.194412,337.188354 160.542938,340.820709 166.066391,343.826294 
	C161.517380,346.381805 159.880966,343.652832 157.647690,341.434540 
	C155.983932,339.781921 154.318710,335.429291 151.794205,337.669525 
	C148.831390,340.298767 153.461029,341.848694 154.827133,343.680328 
	C158.232864,348.246643 161.462143,352.844238 162.736023,358.494537 
	C162.996399,359.649475 163.747650,361.320648 162.026810,361.940399 
	C160.477646,362.498352 159.706696,361.132660 159.009293,359.958221 
	C158.228424,358.643158 158.267960,356.219513 155.963852,356.730194 
	C153.516907,357.272552 154.804932,359.377533 154.785492,360.899323 
	C154.767548,362.304016 153.932541,363.467163 152.647064,362.816437 
	C147.119370,360.018219 148.589905,364.617828 147.709991,367.355682 
z"/>
<path fill="#FBFBFB" opacity="1.000000" stroke="none" 
	d="
M310.985352,173.798218 
	C310.984497,176.244263 310.984497,178.229004 310.984497,180.213760 
	C308.003418,176.938416 308.699524,173.029266 308.602386,169.245651 
	C308.536133,166.665329 310.549713,162.981461 306.910370,161.939041 
	C303.265808,160.895157 300.843018,163.830215 299.143677,166.898499 
	C298.663757,167.765076 298.487030,168.825348 297.913971,169.608551 
	C297.062317,170.772583 297.509277,173.635391 295.066711,172.740128 
	C293.247467,172.073334 294.409698,170.120895 294.794006,168.772675 
	C295.383270,166.705460 295.997375,164.625671 296.840576,162.653687 
	C302.646667,149.074921 305.748077,147.435043 319.993225,150.764435 
	C333.854248,154.004028 348.018555,154.032867 362.095764,154.990738 
	C368.561554,155.430695 375.041077,155.666641 381.512451,156.029327 
	C382.496338,156.084473 383.620361,156.063477 384.423248,156.524277 
	C389.090271,159.202942 393.481323,173.445114 391.478821,178.402298 
	C390.749695,180.207291 389.670776,179.971054 388.344971,179.768478 
	C376.369354,177.938766 364.261963,176.781342 352.658386,173.024994 
	C350.333252,172.272293 348.235687,172.370331 345.937469,173.135925 
	C341.573090,174.589874 337.094421,174.838608 332.787537,172.931213 
	C330.344269,171.849152 329.004364,172.137573 328.754608,175.026596 
	C328.684296,175.839890 328.363220,176.634918 328.128693,177.429932 
	C327.502136,179.554047 326.601135,182.220078 324.231079,181.926117 
	C321.336700,181.567139 323.150879,178.727432 323.042145,177.040039 
	C322.796082,173.221832 323.211182,169.413757 323.919891,165.633118 
	C324.169556,164.301132 324.868073,162.331284 322.672272,161.977997 
	C320.697113,161.660202 320.233429,163.453506 320.085297,164.939011 
	C319.640472,169.399887 319.438904,173.886536 318.924957,178.338028 
	C318.778229,179.608597 320.327179,181.980392 317.333893,181.987518 
	C314.588928,181.994049 314.809204,179.909470 314.857880,178.055786 
	C314.984497,173.234161 315.084442,168.411102 315.292145,163.592789 
	C315.354950,162.135941 316.148285,160.381470 314.003296,159.959579 
	C311.766693,159.519623 311.705444,161.489044 311.583557,162.893280 
	C311.282166,166.365601 311.172729,169.854599 310.985352,173.798218 
z"/>
<path fill="#FCFCFC" opacity="1.000000" stroke="none" 
	d="
M585.722412,469.379333 
	C586.749329,472.068268 587.328064,474.577179 588.582581,476.683502 
	C590.801880,480.409424 588.840454,482.137848 585.839233,483.523895 
	C581.081665,485.720947 576.174744,485.437897 571.186401,484.380707 
	C569.192200,483.958069 568.685730,482.512512 568.005920,480.995728 
	C558.435181,459.642303 548.774475,438.328796 539.305054,416.930634 
	C536.792725,411.253418 540.000366,405.774902 540.259766,399.351501 
	C542.773315,402.025177 544.464050,404.232666 546.555359,405.953247 
	C549.782166,408.608032 553.765137,409.913116 557.762451,408.654266 
	C561.097473,407.603973 561.976074,408.876221 563.021423,411.569214 
	C570.466003,430.747742 578.043396,449.874634 585.722412,469.379333 
z"/>
<path fill="#FDFDFD" opacity="1.000000" stroke="none" 
	d="
M352.197937,357.727600 
	C351.890442,347.459503 351.913269,337.437897 351.983978,326.910522 
	C355.748352,330.476257 360.961853,331.903931 365.746521,334.036407 
	C368.234833,335.145447 369.259186,335.665710 366.676392,338.171417 
	C359.296967,345.330627 360.454163,353.494293 369.270660,358.800934 
	C369.553314,358.971069 370.021454,359.003784 370.147827,359.238190 
	C376.149231,370.371246 386.493713,378.859619 389.986755,392.144440 
	C378.474091,392.144440 367.053894,391.719910 355.684509,392.296783 
	C348.353943,392.668671 342.546875,391.269714 337.917999,385.192352 
	C335.135132,381.538727 328.777740,378.393921 328.945435,375.285828 
	C329.140442,371.671448 336.049988,370.518707 339.926056,368.100616 
	C343.437164,365.910187 347.157013,364.054993 350.778290,362.040222 
	C352.395477,361.140411 354.316895,360.349487 352.197937,357.727600 
z"/>
<path fill="#F9F9F9" opacity="1.000000" stroke="none" 
	d="
M381.641296,63.208015 
	C378.608063,57.920544 377.147980,52.486713 376.063782,46.913193 
	C375.630188,44.684376 376.193634,43.574585 378.653351,43.309479 
	C388.447693,42.253845 397.993378,40.078568 407.132904,36.339832 
	C408.964264,35.590664 409.902985,36.349426 410.806763,37.747581 
	C412.722443,40.711208 414.047363,43.940613 414.919617,47.325115 
	C415.824127,50.834801 417.113312,51.713390 419.765930,48.618889 
	C420.828125,47.379704 422.136658,46.254353 423.539612,45.427895 
	C425.534058,44.253036 427.403198,44.949318 428.933075,46.547703 
	C430.533844,48.220104 430.063904,49.965477 428.774231,51.470814 
	C427.484680,52.976028 426.072632,54.427769 424.508759,55.637238 
	C418.921722,59.958206 418.603821,64.511116 424.080200,68.555595 
	C426.369232,70.246109 426.037140,71.447212 424.612335,73.290840 
	C421.934265,76.756081 418.596558,79.045921 414.152039,79.312340 
	C411.291656,79.483803 408.454254,79.876831 408.783752,75.165543 
	C409.042206,71.470299 405.764435,72.869873 403.984802,73.211815 
	C394.314056,75.069916 387.056610,71.695015 381.641296,63.208015 
z"/>
<path fill="#F9F9F9" opacity="1.000000" stroke="none" 
	d="
M102.784142,194.740845 
	C105.581497,201.037064 107.506310,207.193130 106.341751,213.865494 
	C105.313538,219.756668 102.305481,222.942993 96.486336,223.338913 
	C92.930031,223.580872 91.080093,224.386169 91.976318,228.265396 
	C92.576210,230.861954 91.328590,231.693558 88.853943,232.052200 
	C84.420082,232.694763 79.187386,235.623611 75.872353,234.115509 
	C72.146408,232.420471 74.191826,225.987045 72.831902,221.806305 
	C72.421959,220.546066 72.106102,219.233856 71.936569,217.921005 
	C71.520737,214.700699 69.977180,213.144470 66.603355,213.987442 
	C66.283981,214.067245 65.936501,214.107346 65.610542,214.076462 
	C62.953251,213.824615 59.122162,215.443573 58.160782,212.015213 
	C57.132816,208.349411 61.184059,208.626221 63.414783,207.524414 
	C64.685486,206.896790 65.663475,205.599701 66.656197,204.498505 
	C73.341888,197.082367 79.972572,189.616440 86.694023,182.233032 
	C87.436600,181.417313 87.953476,179.590103 89.777199,180.735779 
	C91.599327,181.880447 93.582069,182.864365 94.798019,184.706970 
	C95.241302,185.378693 94.387077,185.766190 93.816635,186.107117 
	C92.118309,187.122086 91.568268,188.728943 91.208130,190.707092 
	C93.514870,191.037231 93.833420,189.122192 94.851479,188.296753 
	C97.081024,186.488998 98.373711,187.488708 99.528145,189.481293 
	C101.524178,192.926483 98.754395,191.017883 97.641670,191.303757 
	C96.591957,191.573410 96.397469,192.711899 96.591599,193.767517 
	C96.843391,195.136642 97.431175,196.336365 98.803253,196.837967 
	C100.284195,197.379333 100.879913,196.337967 101.644501,194.989578 
	C102.173035,194.694107 102.373199,194.581009 102.784142,194.740845 
z"/>
<path fill="#FCFCFC" opacity="1.000000" stroke="none" 
	d="
M471.348450,406.710693 
	C475.687256,413.219421 479.736694,419.493591 483.961182,425.647583 
	C485.407562,427.754578 485.759644,429.460358 484.535126,431.930634 
	C481.374359,438.307037 478.600189,444.875061 475.381256,452.010162 
	C461.773712,441.464935 448.322784,431.041107 434.520844,420.345215 
	C443.093292,416.063812 451.327820,411.962036 459.550415,407.836395 
	C461.474640,406.870911 463.571228,406.087769 465.214386,404.758331 
	C468.201599,402.341400 469.831696,403.492462 471.348450,406.710693 
z"/>
<path fill="#FCFCFC" opacity="1.000000" stroke="none" 
	d="
M32.707108,364.717133 
	C29.409807,367.779388 26.283379,370.518066 23.402306,373.494202 
	C21.829899,375.118530 20.875008,375.552460 19.124937,373.619110 
	C15.785463,369.929871 12.028606,366.620087 8.659003,362.955994 
	C5.643000,359.676392 5.482784,356.048401 8.714354,352.782745 
	C18.158394,343.239044 27.692371,333.784332 37.619621,323.866608 
	C39.802666,333.285950 41.287838,342.402161 45.458519,350.667908 
	C46.354633,352.443848 45.138988,353.035217 44.217224,353.905640 
	C40.475613,357.438904 36.726589,360.964264 32.707108,364.717133 
z"/>
<path fill="#506EF9" opacity="1.000000" stroke="none" 
	d="
M372.498718,27.280985 
	C383.397003,26.486197 393.633301,24.513662 403.322845,20.152075 
	C404.744873,19.511972 407.033478,19.036312 406.143127,16.862036 
	C405.225464,14.621113 403.313232,15.964153 401.875092,16.588633 
	C392.765350,20.544321 383.235138,22.507292 373.153900,23.013317 
	C373.152008,19.959661 375.290924,18.608507 377.134064,17.484997 
	C387.114807,11.401196 397.878448,7.724527 409.709534,8.014565 
	C415.428986,8.154778 422.780426,16.143253 422.646423,21.785587 
	C422.598480,23.804380 420.755493,24.410866 419.489716,25.324781 
	C408.396637,33.334206 395.555084,36.642281 382.356415,38.943707 
	C381.045593,39.172279 379.679871,39.164871 378.406219,39.511539 
	C375.860992,40.204308 374.330017,39.661087 373.683319,36.822971 
	C372.984863,33.757629 371.707458,30.813803 372.498718,27.280985 
z"/>
<path fill="#F8F8F8" opacity="1.000000" stroke="none" 
	d="
M366.176544,345.501465 
	C367.302246,341.872986 369.320068,341.083160 372.416748,342.382263 
	C374.245972,343.149628 376.232971,343.532745 378.096985,344.228180 
	C379.285553,344.671600 380.321991,344.890900 381.252441,343.815857 
	C382.555664,342.310059 380.640717,341.604950 380.360718,340.431976 
	C381.907349,338.602783 385.952667,342.402496 385.864746,338.718140 
	C385.778778,335.115540 380.851288,336.526093 378.891235,334.296112 
	C381.130737,331.243347 383.116699,333.029816 385.064972,334.695831 
	C386.226013,335.688660 387.499329,337.053253 388.820251,335.347992 
	C390.049652,333.760864 388.457458,332.669739 387.433075,331.605865 
	C384.563904,328.626038 380.764526,328.302124 376.418427,328.201019 
	C379.692169,324.536499 383.203766,324.512848 386.710632,326.048370 
	C391.996033,328.362671 395.942322,331.982727 396.460693,338.206909 
	C396.929840,343.840027 396.849731,349.504822 397.755859,355.121094 
	C398.181671,357.760132 398.503540,360.328979 400.446472,362.641785 
	C393.789215,363.788971 388.611786,366.863708 384.541229,371.913574 
	C378.530762,365.723724 372.407227,359.772919 372.817383,350.244080 
	C372.872162,348.971680 372.271118,347.899567 370.830353,347.843811 
	C369.254395,347.782837 368.990265,348.929596 368.996002,350.202881 
	C369.001221,351.362488 368.997101,352.522156 368.997101,354.244171 
	C365.365356,352.012207 366.075897,348.837769 366.176544,345.501465 
z"/>
<path fill="#F9F9F9" opacity="1.000000" stroke="none" 
	d="
M561.773438,507.009430 
	C563.059326,501.704987 568.158630,502.325348 571.520386,500.428772 
	C572.858276,499.674011 573.197632,502.454132 573.872192,503.646881 
	C574.637329,504.999847 575.184265,506.699554 577.054199,505.774902 
	C578.902710,504.860809 577.949829,503.294220 577.331299,501.904724 
	C575.466187,497.714966 573.655273,493.501068 571.637939,488.871368 
	C578.490845,489.152985 584.850342,489.718109 590.255981,485.409515 
	C591.986206,484.030426 592.127075,486.004089 592.446655,486.837067 
	C594.878784,493.175934 597.402161,499.490173 599.519287,505.936188 
	C601.258972,511.233002 598.958069,514.658752 593.526978,514.757568 
	C582.298340,514.961914 571.063293,514.819153 558.878418,514.819153 
	C562.301514,511.686798 565.547363,510.468597 569.142883,509.993530 
	C570.506836,509.813263 572.043152,509.641144 571.905762,507.858795 
	C571.742004,505.732361 569.949951,505.841431 568.486511,506.107605 
	C566.706238,506.431366 564.980957,507.057587 562.852295,507.643005 
	C562.274841,507.604492 562.076965,507.475891 561.773438,507.009430 
z"/>
<path fill="#F8F8F8" opacity="1.000000" stroke="none" 
	d="
M486.785828,309.072388 
	C489.254852,311.205475 491.474365,313.668640 493.845215,315.976349 
	C496.646545,318.702972 499.561829,321.165375 503.826752,318.465790 
	C504.739105,317.888306 506.186279,317.503876 506.886169,318.894714 
	C507.656036,320.424622 506.517731,321.240814 505.406006,322.128021 
	C503.955261,323.285767 500.829773,322.543243 500.965485,325.343811 
	C501.181763,329.807404 501.371918,334.375336 502.505341,338.652100 
	C503.166412,341.146545 506.363556,339.370331 508.348663,339.861023 
	C509.944244,340.255402 512.383179,338.669922 513.016968,341.191162 
	C513.601196,343.515411 515.313599,347.054871 509.932587,346.245178 
	C508.036163,345.959839 505.776062,346.201477 504.056122,347.004150 
	C499.709381,349.032776 498.297119,346.755920 497.360382,343.167938 
	C497.026917,341.890656 496.339783,340.701660 496.044006,339.419312 
	C495.110443,335.371490 493.262695,333.212860 488.511749,333.945312 
	C485.054321,334.478394 482.141144,332.568542 480.256897,329.024750 
	C481.789185,328.643188 483.162903,328.301117 484.536621,327.959045 
	C478.781525,328.570923 477.992676,323.096252 475.065460,320.403961 
	C474.518280,319.900726 473.525360,318.842407 474.456696,318.393402 
	C480.386414,315.534485 478.935425,309.191559 481.196594,304.629028 
	C481.484589,304.047943 481.902222,303.531128 482.505524,302.608978 
	C484.050476,304.599976 485.454529,306.409363 486.941528,308.545837 
	C486.510956,309.298065 487.236786,308.817719 486.728760,309.246552 
	C486.319519,309.591980 485.852997,309.809387 485.385590,310.039825 
	C485.832581,309.875305 486.258575,309.674530 486.785828,309.072388 
z"/>
<path fill="#F0F0F0" opacity="1.000000" stroke="none" 
	d="
M245.042145,257.035278 
	C246.455200,261.340149 247.784622,265.265778 249.021149,269.220428 
	C249.443832,270.572174 249.903458,271.985413 251.580185,271.552094 
	C253.222519,271.127716 253.199692,269.598053 252.780930,268.248352 
	C251.210693,263.187103 250.113785,257.961426 247.376144,253.306564 
	C246.400238,251.647171 244.860031,249.401962 247.247269,248.093872 
	C249.318436,246.958954 250.868347,249.099121 252.070572,250.648361 
	C258.234161,258.591034 257.360779,269.940796 250.050461,276.797150 
	C241.939651,284.404297 233.109070,290.690094 221.363525,292.052032 
	C222.285446,289.434052 224.525131,288.401733 226.090561,286.803009 
	C230.986053,281.803497 231.783600,277.928467 228.766205,271.580719 
	C227.699203,269.336029 226.283203,267.253479 225.275955,264.986115 
	C224.906845,264.155273 223.308197,263.051727 224.928986,262.089325 
	C226.086746,261.401825 227.137146,262.267883 227.987366,263.134125 
	C229.893951,265.076630 231.049973,267.479767 231.973083,269.975494 
	C232.834885,272.305511 233.444382,274.727661 234.241150,277.083466 
	C234.629883,278.232819 235.283142,279.276367 236.768143,278.867798 
	C238.307022,278.444366 238.202606,277.152313 237.922760,276.017944 
	C236.966003,272.139557 235.586548,268.414764 233.864075,264.797089 
	C232.370926,261.661041 230.302536,257.273132 233.921356,255.593857 
	C236.080505,254.591934 238.164703,259.448273 239.075958,262.430145 
	C240.091248,265.752411 240.648041,269.212952 241.604813,272.555908 
	C241.995621,273.921417 241.366837,276.565552 244.022812,276.021667 
	C246.820221,275.448822 245.418503,273.210510 245.174561,271.535065 
	C244.217911,264.964142 242.701126,258.584534 238.274826,252.984940 
	C242.130890,252.109497 243.571747,254.312988 245.042145,257.035278 
z"/>
<path fill="#F8F8F8" opacity="1.000000" stroke="none" 
	d="
M486.938782,597.827209 
	C482.774139,600.716980 479.915161,604.265198 478.085815,609.162231 
	C473.449982,601.835815 469.197083,595.186829 465.027710,588.485901 
	C463.592010,586.178467 466.906372,581.491150 470.660461,581.305359 
	C477.627075,580.960693 484.622253,581.206909 491.605316,581.168457 
	C492.962555,581.161011 493.690338,581.951965 494.406342,582.918213 
	C496.771057,586.109558 499.167114,589.277710 501.880157,592.893311 
	C496.678558,594.331543 491.447784,594.535767 486.938782,597.827209 
z"/>
<path fill="#4F6DF7" opacity="1.000000" stroke="none" 
	d="
M121.232590,695.936646 
	C113.157959,690.358093 110.449905,681.224854 113.633469,671.805725 
	C114.150352,670.276428 114.083466,668.549927 114.308891,666.733459 
	C115.230789,666.865784 116.034958,666.911987 116.803467,667.102234 
	C124.637878,669.041870 124.100578,669.062195 124.303833,677.007690 
	C124.573647,687.555176 125.747162,691.110474 134.898651,695.324707 
	C140.745956,698.017334 145.838425,701.664124 148.169250,708.084290 
	C148.490234,708.968506 149.163498,709.999939 147.835678,710.644897 
	C147.041214,711.030762 146.069046,711.066101 145.665451,710.150635 
	C141.563232,700.846313 132.410645,699.938904 124.333847,697.228760 
	C123.392700,696.912964 122.494957,696.467773 121.232590,695.936646 
z"/>
<path fill="#F8F8F8" opacity="1.000000" stroke="none" 
	d="
M395.601074,474.040283 
	C394.761078,471.565521 396.448975,472.209290 397.391724,472.201599 
	C403.356171,472.153046 409.323883,472.279083 415.284546,472.121399 
	C417.374054,472.066132 418.694519,472.982178 419.962799,474.343872 
	C422.754761,477.341370 425.557037,480.329346 429.110535,484.128998 
	C420.023804,484.128998 411.857147,484.146820 403.690643,484.117737 
	C401.362335,484.109436 401.086395,481.837524 400.041901,480.490326 
	C398.525421,478.534271 397.241791,476.397705 395.601074,474.040283 
z"/>
<path fill="#ECECEC" opacity="1.000000" stroke="none" 
	d="
M557.692261,467.315125 
	C560.884766,474.471161 563.895813,481.291931 566.942139,488.192474 
	C562.841797,489.998169 561.235413,488.394928 559.755310,484.631622 
	C552.586609,466.404114 545.124878,448.290833 537.631226,430.193237 
	C536.540344,427.558685 536.118713,425.179077 537.518616,422.351257 
	C544.236877,437.348389 550.873840,452.164154 557.692261,467.315125 
z"/>
<path fill="#F5F5F5" opacity="1.000000" stroke="none" 
	d="
M526.455811,352.695343 
	C518.704956,350.167328 514.885254,342.703003 517.041992,335.480591 
	C517.413757,334.235596 518.177124,334.162231 519.091797,333.804779 
	C521.366150,332.915894 523.578125,331.867615 526.013916,330.795898 
	C527.045166,338.098785 527.477478,345.325531 526.455811,352.695343 
z"/>
<path fill="#E8E8E8" opacity="1.000000" stroke="none" 
	d="
M278.956146,108.507835 
	C285.974060,107.233856 292.576355,107.545044 297.802795,113.316231 
	C292.384888,114.488060 292.404327,114.470497 288.963013,110.660576 
	C288.587677,110.245079 287.809570,109.946709 287.250031,109.991409 
	C285.690643,110.115982 285.711029,111.444954 285.565521,112.588913 
	C285.169189,115.705315 284.840271,118.832535 284.341797,121.932503 
	C284.166962,123.019760 284.012238,124.673615 282.667480,124.689865 
	C281.067505,124.709198 280.960083,122.947220 280.594238,121.736069 
	C279.855927,119.292145 279.997681,116.832298 280.556610,114.360336 
	C280.869904,112.974869 281.894318,111.574974 280.326019,109.891953 
	C279.492859,109.550209 279.134521,109.277946 278.956146,108.507835 
z"/>
<path fill="#E6E6E6" opacity="1.000000" stroke="none" 
	d="
M415.440155,345.519196 
	C415.712341,348.490356 414.460846,349.568848 411.942749,348.613190 
	C408.690704,347.378937 405.542084,345.872284 402.290070,344.637970 
	C400.168579,343.832825 400.075317,342.141541 400.591522,340.582428 
	C401.283813,338.491486 402.905731,339.960602 403.863953,340.367523 
	C407.654968,341.977264 411.794464,342.784393 415.440155,345.519196 
z"/>
<path fill="#E6EEF5" opacity="1.000000" stroke="none" 
	d="
M457.147217,515.997803 
	C445.860809,518.469543 447.979645,508.071320 444.063812,503.433075 
	C446.211914,502.411469 446.881531,504.201874 447.882965,505.078796 
	C451.382385,508.143036 454.776337,511.328308 458.293213,514.371826 
	C460.246887,516.062439 458.881805,515.964905 457.147217,515.997803 
z"/>
<path fill="#E8E8E8" opacity="1.000000" stroke="none" 
	d="
M454.233398,587.768188 
	C452.573914,585.689392 451.148499,583.896973 449.380981,581.674438 
	C454.003113,580.660828 458.119812,581.337463 462.829895,581.099426 
	C460.761475,584.100586 459.095642,586.495667 457.453217,588.906616 
	C455.580658,591.655396 455.495667,588.218933 454.233398,587.768188 
z"/>
<path fill="#E6E6E6" opacity="1.000000" stroke="none" 
	d="
M356.815552,324.330841 
	C359.884644,324.895081 362.581940,325.655457 365.328217,326.135590 
	C369.305969,326.831024 372.486115,328.394104 373.863708,333.535767 
	C367.749023,330.229034 361.161255,329.288300 356.815552,324.330841 
z"/>
<path fill="#D9D9D9" opacity="1.000000" stroke="none" 
	d="
M562.205444,493.437134 
	C563.909302,491.793427 565.763611,492.532257 567.505737,492.446930 
	C569.152100,492.366302 569.622437,493.724121 570.058411,494.979156 
	C570.599548,496.536774 569.474548,496.914764 568.378174,497.387726 
	C566.463257,498.213867 564.582825,499.119873 562.432373,500.110016 
	C562.310730,497.689056 562.214172,495.766968 562.205444,493.437134 
z"/>
<path fill="#D9D9D9" opacity="1.000000" stroke="none" 
	d="
M267.706512,122.319626 
	C266.550995,118.906639 266.153900,115.796852 266.491699,112.636337 
	C266.624176,111.396782 266.649719,109.787453 268.554565,109.806870 
	C271.053284,109.832329 269.788177,111.658455 269.710114,112.672089 
	C269.465607,115.846977 269.839844,118.945755 270.417755,122.045273 
	C270.608124,123.066391 271.829865,124.462128 270.307922,125.026413 
	C268.623596,125.650917 268.140564,124.070847 267.706512,122.319626 
z"/>
<path fill="#D9D9D9" opacity="1.000000" stroke="none" 
	d="
M278.634033,108.118912 
	C279.282196,108.521271 279.537628,108.882172 279.885162,109.446037 
	C277.227356,109.871521 277.295013,112.106247 276.870636,113.993492 
	C276.303101,116.517380 276.564972,119.280525 274.808380,121.635727 
	C271.592194,113.803703 272.808929,109.176788 278.634033,108.118912 
z"/>
<path fill="#ECECEC" opacity="1.000000" stroke="none" 
	d="
M465.702545,599.391479 
	C459.507660,597.917542 458.731140,596.338318 461.290558,590.192627 
	C463.078918,593.403503 466.455902,595.333069 465.702545,599.391479 
z"/>
<path fill="#A4A4A4" opacity="1.000000" stroke="none" 
	d="
M262.998169,117.122185 
	C262.836548,118.326103 262.872803,119.576988 262.405029,119.808220 
	C261.364960,120.322327 261.006958,119.249451 261.022430,118.437714 
	C261.054749,116.738243 260.369507,114.804100 262.572754,113.096542 
	C262.737030,114.599480 262.852173,115.652985 262.998169,117.122185 
z"/>
<path fill="#151515" opacity="1.000000" stroke="none" 
	d="
M102.964699,194.715378 
	C102.823730,194.983582 102.652527,194.953400 102.227104,194.865204 
	C101.962318,194.139130 100.099884,194.047775 101.277542,193.193863 
	C101.932495,192.718964 102.743263,193.485321 102.964699,194.715378 
z"/>
<path fill="#F9F9F9" opacity="1.000000" stroke="none" 
	d="
M562.290161,507.453552 
	C561.768555,508.004456 561.111694,508.197296 561.475220,506.843842 
	C561.814331,506.839050 561.960938,507.006531 562.290161,507.453552 
z"/>
<path fill="#101010" opacity="1.000000" stroke="none" 
	d="
M275.417847,154.133362 
	C277.291809,154.156174 278.706940,154.506943 278.721588,156.169968 
	C278.736694,157.884506 277.248688,158.140442 275.856750,158.190048 
	C274.859283,158.225601 273.859711,158.203537 272.861053,158.203552 
	C229.419876,158.203918 185.978683,158.203873 142.537506,158.203873 
	C142.204620,158.203873 141.861404,158.257080 141.540573,158.194901 
	C139.797546,157.857056 136.829575,159.159439 136.879257,156.169647 
	C136.927094,153.290588 139.836517,154.164566 141.655640,154.162903 
	C186.095428,154.122375 230.535294,154.131363 275.417847,154.133362 
z"/>
<path fill="#121212" opacity="1.000000" stroke="none" 
	d="
M151.015121,167.875671 
	C146.859924,167.874512 143.200989,167.883072 139.542175,167.867355 
	C138.107162,167.861191 136.739227,167.481430 136.703323,165.792328 
	C136.662903,163.891983 138.191589,163.966599 139.558289,163.967163 
	C154.193817,163.973251 168.829361,163.975571 183.464890,163.962860 
	C184.822754,163.961685 186.543579,163.901367 186.580612,165.548569 
	C186.630539,167.769394 184.693436,167.880981 182.944580,167.879517 
	C172.466873,167.870804 161.989151,167.875473 151.015121,167.875671 
z"/>
<path fill="#101010" opacity="1.000000" stroke="none" 
	d="
M229.483643,167.618027 
	C229.154739,164.751297 230.981613,164.814835 232.659256,164.812744 
	C246.976593,164.794815 261.294006,164.786926 275.611267,164.827805 
	C276.996124,164.831757 278.938812,164.412735 279.075806,166.620682 
	C279.207306,168.739639 277.462830,168.855911 275.934235,168.856262 
	C261.118042,168.859604 246.301819,168.844421 231.485825,168.782059 
	C230.900589,168.779602 230.317566,168.250702 229.483643,167.618027 
z"/>
<path fill="#121212" opacity="1.000000" stroke="none" 
	d="
M448.023926,251.189270 
	C448.551544,250.184586 448.937164,249.288055 449.602234,248.962646 
	C457.529572,245.083969 459.004883,238.465790 458.225250,230.393387 
	C457.683411,224.783234 458.259460,219.073639 458.060974,213.418137 
	C457.965790,210.705978 458.971375,209.199707 461.282837,207.907364 
	C469.253998,203.450684 477.160370,198.873154 484.995544,194.181549 
	C487.144684,192.894669 488.841614,192.945694 490.945038,194.195297 
	C498.797028,198.860001 506.671356,203.495178 514.670593,207.899353 
	C517.287842,209.340363 517.965881,211.183868 517.923706,213.943542 
	C517.798950,222.102264 518.009705,230.267365 517.805786,238.422897 
	C517.737671,241.145081 518.673828,242.602661 520.952515,243.935211 
	C528.840759,248.548126 536.642700,253.312851 544.384216,258.168671 
	C545.867859,259.099304 548.949768,259.831146 547.571472,262.283264 
	C546.128723,264.850189 544.051819,262.533173 542.505371,261.606873 
	C534.668945,256.912842 526.834595,252.209000 519.137268,247.292847 
	C516.736816,245.759689 514.907532,245.617386 512.428528,247.128448 
	C505.484497,251.361115 498.305084,255.207916 491.366394,259.448883 
	C488.917023,260.945953 487.085236,261.036987 484.596161,259.503510 
	C477.812897,255.324524 470.764893,251.575119 463.981720,247.395935 
	C461.296387,245.741470 459.306335,245.659210 457.060333,247.957718 
	C455.559814,249.493317 453.740479,250.727570 452.010498,252.025589 
	C450.579010,253.099640 449.085022,253.938217 448.023926,251.189270 
z"/>
<path fill="#14151C" opacity="1.000000" stroke="none" 
	d="
M548.509277,238.508133 
	C536.071228,234.099274 531.010803,226.086029 533.164368,213.010712 
	C533.881348,208.657837 535.170288,206.347015 538.641724,203.614624 
	C548.730469,195.673828 558.180359,194.695267 567.979919,203.630188 
	C570.325562,205.768936 572.286926,204.876190 574.369934,202.888245 
	C577.734741,199.676926 581.339783,196.717072 584.848999,193.657471 
	C586.031677,192.626266 587.412903,191.636642 588.668701,193.258987 
	C589.732849,194.633682 588.534058,195.728683 587.515564,196.618958 
	C583.886597,199.790955 580.321350,203.044678 576.562561,206.056046 
	C574.271362,207.891632 573.136719,209.984344 573.585022,212.898117 
	C573.635071,213.223129 573.611084,213.563812 573.588867,213.895035 
	C573.234680,219.171021 575.843811,225.881973 572.603943,229.407333 
	C568.091248,234.317596 561.075928,236.936310 555.108887,240.497589 
	C552.433716,242.094238 550.907410,239.343689 548.509277,238.508133 
z"/>
<path fill="#151515" opacity="1.000000" stroke="none" 
	d="
M178.556824,206.569244 
	C178.342056,202.806976 179.770584,200.500046 183.137451,199.489639 
	C185.737930,198.709229 187.715607,199.772980 189.301254,201.634171 
	C190.950516,203.570068 191.182816,205.818253 190.054672,208.137909 
	C188.913467,210.484436 186.883514,211.583359 184.410126,211.516769 
	C181.461594,211.437393 179.441483,209.874130 178.556824,206.569244 
z"/>
<path fill="#101010" opacity="1.000000" stroke="none" 
	d="
M212.507477,179.396927 
	C214.120163,182.761429 213.843430,185.543243 211.093811,187.699081 
	C209.290222,189.113174 207.243118,189.497879 205.056351,188.427170 
	C202.771759,187.308533 201.407349,185.459702 201.332733,182.984726 
	C201.258713,180.529373 202.346222,178.411850 204.714432,177.406143 
	C207.552902,176.200729 210.207169,176.493088 212.507477,179.396927 
z"/>
<path fill="#0A0B0C" opacity="1.000000" stroke="none" 
	d="
M198.954498,188.946594 
	C202.340271,191.526413 203.087036,194.475967 200.931000,197.766937 
	C199.127991,200.519058 196.290268,200.971603 193.480667,199.789398 
	C190.811279,198.666183 189.588028,196.337875 190.006943,193.342865 
	C190.565292,189.350998 193.566956,187.764572 198.954498,188.946594 
z"/>
<path fill="#070A16" opacity="1.000000" stroke="none" 
	d="
M582.847534,523.755859 
	C585.310181,521.764587 587.600464,521.454834 589.881897,523.274170 
	C591.545837,524.601135 592.414001,526.346619 591.837402,528.511475 
	C591.223145,530.818054 589.610901,532.179016 587.292786,532.512512 
	C582.881592,533.146973 580.681030,529.128052 582.847534,523.755859 
z"/>
<path fill="#070A16" opacity="1.000000" stroke="none" 
	d="
M577.025085,522.783752 
	C579.651794,524.866089 580.673218,527.097107 578.998657,529.901062 
	C577.780029,531.941589 575.910889,532.965820 573.559448,532.449646 
	C570.567444,531.792786 568.722839,529.648132 569.303589,526.711243 
	C570.059753,522.887085 572.656616,521.148071 577.025085,522.783752 
z"/>
<path fill="#070A16" opacity="1.000000" stroke="none" 
	d="
M603.208984,529.228821 
	C601.597961,532.335632 599.330933,533.101807 596.426758,532.131592 
	C594.282104,531.415161 593.308594,529.735901 593.170349,527.621765 
	C593.012939,525.214600 594.266113,523.508606 596.392578,522.530212 
	C600.210266,520.773743 603.359802,523.683044 603.208984,529.228821 
z"/>
<path fill="#292929" opacity="1.000000" stroke="none" 
	d="
M402.342102,66.356537 
	C397.291168,70.274673 395.215088,70.515175 390.510834,67.433685 
	C395.084076,67.330574 399.550751,66.983681 402.622955,63.128613 
	C402.728790,62.995808 403.455719,63.357986 403.893158,63.489460 
	C403.458740,64.353088 403.024323,65.216705 402.342102,66.356537 
z"/>
<path fill="#14151C" opacity="1.000000" stroke="none" 
	d="
M398.384827,51.296921 
	C397.892975,49.524799 397.146545,47.889832 398.976868,47.043552 
	C400.227661,46.465240 401.207733,47.336132 401.794098,48.419662 
	C402.442047,49.617088 402.826385,50.949036 401.861237,52.145580 
	C400.570099,53.746216 399.586548,52.532177 398.384827,51.296921 
z"/>
<path fill="#292929" opacity="1.000000" stroke="none" 
	d="
M383.122559,48.782173 
	C381.547394,49.313030 380.383972,49.741825 378.734467,50.349789 
	C379.239624,47.341652 381.127167,46.540691 383.144318,46.079475 
	C384.636658,45.738255 386.835083,46.060905 386.904999,47.469288 
	C387.019470,49.775150 384.657074,48.106270 383.122559,48.782173 
z"/>
<path fill="#242424" opacity="1.000000" stroke="none" 
	d="
M397.983124,43.872841 
	C396.875305,44.319397 395.810760,45.130795 395.470917,44.895489 
	C394.204102,44.018345 395.382568,43.218292 395.967529,42.593185 
	C398.130981,40.281143 400.498169,40.328140 403.773346,42.796513 
	C401.856354,43.136646 400.107727,43.446911 397.983124,43.872841 
z"/>
<path fill="#242424" opacity="1.000000" stroke="none" 
	d="
M394.549683,61.726357 
	C392.759674,62.196335 391.162018,61.916466 390.999451,60.489868 
	C390.738403,58.199207 392.933228,59.773331 393.881897,59.172485 
	C394.762787,58.614578 395.845764,58.375832 396.896362,57.974972 
	C397.586853,60.211140 396.018677,60.738594 394.549683,61.726357 
z"/>
<path fill="#0A0B0C" opacity="1.000000" stroke="none" 
	d="
M383.243011,53.082680 
	C386.683716,52.141579 387.015930,54.311264 387.094604,56.525738 
	C387.132599,57.595181 386.426910,58.513004 385.231079,58.166702 
	C382.816681,57.467506 382.605682,55.548370 383.243011,53.082680 
z"/>
<path fill="#151515" opacity="1.000000" stroke="none" 
	d="
M92.182510,212.300903 
	C97.496178,212.551666 100.575546,209.344131 103.804245,205.422592 
	C103.083351,212.804535 97.111420,215.982437 92.182510,212.300903 
z"/>
<path fill="#242424" opacity="1.000000" stroke="none" 
	d="
M83.900772,198.540710 
	C84.550591,198.733276 84.901077,198.815628 85.133606,199.027451 
	C86.540085,200.308838 87.712448,201.806137 86.541412,203.722305 
	C85.790024,204.951828 84.371918,204.689011 83.577393,203.743134 
	C82.200790,202.104263 80.625252,200.246750 83.900772,198.540710 
z"/>
<path fill="#242424" opacity="1.000000" stroke="none" 
	d="
M79.337944,194.164185 
	C81.181519,193.663345 82.771469,192.665726 84.366173,194.642578 
	C81.556297,195.612350 79.195396,197.096252 77.115967,199.895432 
	C76.129265,196.815704 77.552345,195.567947 79.337944,194.164185 
z"/>
<path fill="#242424" opacity="1.000000" stroke="none" 
	d="
M95.740669,203.093750 
	C96.852585,202.472595 97.268753,200.839554 98.342247,201.569870 
	C99.586258,202.416199 98.859634,203.660858 98.069344,204.554230 
	C97.020622,205.739761 95.641518,206.188934 94.056290,206.003448 
	C93.270821,205.911530 92.644150,205.258057 93.035797,204.772079 
	C93.590836,204.083359 94.614433,203.772263 95.740669,203.093750 
z"/>
<path fill="#3C3E40" opacity="1.000000" stroke="none" 
	d="
M486.952209,308.855469 
	C486.636902,315.300842 482.940460,308.390442 481.467255,310.250244 
	C482.786133,308.176880 484.548920,308.732941 486.678589,309.147064 
	C487.024445,308.872894 486.936066,308.899780 486.952209,308.855469 
z"/>
<path fill="#151515" opacity="1.000000" stroke="none" 
	d="
M483.744263,313.485596 
	C484.208832,315.148224 484.430573,316.556702 482.794952,317.079102 
	C481.933380,317.354218 481.197723,316.670380 481.132477,315.778595 
	C481.013702,314.155365 481.384094,312.805573 483.744263,313.485596 
z"/>
<path fill="#FDFDFD" opacity="1.000000" stroke="none" 
	d="
M493.478180,253.663513 
	C489.611908,257.011963 486.314667,256.280792 482.564423,253.842804 
	C476.873016,250.142944 470.902557,246.857742 464.943359,243.592087 
	C462.800629,242.417862 461.901062,241.115601 461.962067,238.576294 
	C462.149567,230.768875 462.130096,222.952057 461.969543,215.143433 
	C461.921448,212.805710 462.749176,211.593781 464.723083,210.497055 
	C471.674744,206.634628 478.579041,202.678940 485.379883,198.558197 
	C487.403198,197.332199 488.861786,197.537872 490.764984,198.676758 
	C497.448273,202.676056 504.200836,206.562576 510.990784,210.378677 
	C512.893188,211.447845 513.909180,212.581665 513.857117,214.986450 
	C513.684570,222.960846 513.697632,230.943100 513.850281,238.918304 
	C513.895264,241.264938 513.017395,242.463043 511.050964,243.545578 
	C505.241699,246.743622 499.543854,250.144089 493.478180,253.663513 
z"/>
<path fill="#5170FD" opacity="1.000000" stroke="none" 
	d="
M552.489014,200.521912 
	C558.466980,201.829941 562.926270,205.656479 568.023987,208.255661 
	C569.021973,208.764496 569.281738,209.730347 569.299988,210.774811 
	C569.314514,211.604248 569.317749,212.433884 569.325439,213.263443 
	C569.461426,227.955490 569.433289,227.905060 556.590210,235.069199 
	C554.470093,236.251862 552.897278,236.359055 550.695068,235.168182 
	C537.263733,227.905197 537.287537,227.966934 537.616638,212.526962 
	C537.668579,210.089233 538.311523,208.508026 540.510986,207.342178 
	C544.461365,205.248260 548.296204,202.936371 552.489014,200.521912 
z"/>
<path fill="#D9D9D9" opacity="1.000000" stroke="none" 
	d="
M183.083069,206.922455 
	C181.825073,204.504471 182.691711,203.381729 184.808929,203.279755 
	C185.882156,203.228073 186.770462,204.117111 186.720078,205.188507 
	C186.620804,207.299301 185.508865,208.183640 183.083069,206.922455 
z"/>
<path fill="#E6E6E6" opacity="1.000000" stroke="none" 
	d="
M205.824860,181.498505 
	C207.956360,180.026871 209.225922,180.855133 209.640396,182.699265 
	C209.894852,183.831482 209.027740,184.949203 207.688919,184.935623 
	C205.629639,184.914719 204.753754,183.877670 205.824860,181.498505 
z"/>
<path fill="#E8E8E8" opacity="1.000000" stroke="none" 
	d="
M194.125977,193.208939 
	C195.953629,191.440857 197.310501,191.743515 198.038300,193.727600 
	C198.468231,194.899643 197.944321,196.081558 196.612076,196.339767 
	C194.440933,196.760574 193.722076,195.542984 194.125977,193.208939 
z"/>
</svg>